<svg height="482" viewBox="0 0 240 482" width="240" xmlns="http://www.w3.org/2000/svg">
<g fill="#000" fill-rule="evenodd">
<path d="m13.333333 10h213.333333v460h-213.333333z" fill="none"/>
<path d="m237.810696 450.260946c-.002104 1.021622-.015611 2.041686-.098067 3.062269-.39848 4.91951-2.002953 9.716478-4.651103 13.882886-2.795857 4.397694-6.721417 8.036606-11.312465 10.499607-4.251 2.281217-9.042506 3.523673-13.865662 3.603204-1.627196.02678-3.256828.004869-4.884836.004869h-163.5247254c-2.1904256 0-4.3800396.003246-6.5704652 0-3.8468386-.004869-7.6530987-.672761-11.2426698-2.068596-4.8028673-1.867337-9.0985037-4.962521-12.39022886-8.926857-3.23085747-3.892921-5.46186153-8.583579-6.4414257-13.546911-.42850861-2.172473-.57540265-4.366045-.57540265-6.575036v-290.93314c-.10388088.138772-1.42349259.137149-1.52169248 0-.14689405-.205318 0-1.063919 0-1.305756v-27.163614c0-.48205-.1428362-1.225413 0-1.68961.01704296-.055996-.02678179-.179349.00973883-.217491.15500974-.161495 1.25955559 0 1.51195365 0v-9.669409c-.10388088.138772-1.42349259.137961-1.52169248 0-.14689405-.205317 0-1.063919 0-1.305755v-27.1636142c0-.4820503-.1428362-1.225414 0-1.6896105.01704296-.0559958-.02678179-.1793487.00973883-.2174907.15500974-.161495 1.25955559 0 1.51195365 0v-16.0821383c-.03489748.338409.06167927.2215483-.15825602.3473358-.1533866.0876455-1.27903325.0657342-1.36343646-.0340843-.08521478-.10063 0-.6329953 0-.7604059v-14.5661957c0-.0860225-.06330241-.5169462 0-.5802457.163937-.1655527 1.26523657-.0024346 1.52169248-.0024346v-25.467511c0-1.4331663.00892726-2.8606518.15095189-4.2897605.48775316-4.9089597 2.19204874-9.6767128 4.91729852-13.7879361 2.862405-4.31816409 6.8317905-7.87673383 11.4406927-10.24478549 4.3005059-2.20899129 9.0928227-3.36217889 13.9249064-3.37272881h174.3892041c3.68696 0 7.33334.59404174 10.799553 1.8689592 4.851561 1.78455984 9.216181 4.81238736 12.585006 8.7329006 3.290913 3.8304331 5.598205 8.4732102 6.663795 13.409762.499115 2.313679.685983 4.6573846.685983 7.0197556l.000605 68.574491c.150952-.2101869 1.205992-.0576188 1.521692-.0576188v48.6927574c-.369264 0-1.369117.177726-1.521692-.102253zm-35.628571-440.27558037-10.355625.01190247h-15.06435c-1.037185 0-2.039473.4771811-2.693598 1.2822213-.877036 1.0798791-.858821 2.4616483-.813674 3.8300724l.016497.5119177c.014367.5100609.017259 1.0127038-.037117 1.491305-.155821 1.3714898-.62572 2.7032146-1.366682 3.8685751-1.516823 2.3867169-4.119526 3.9619014-6.936483 4.1996804-2.292684.1931447-4.653539.0324613-6.949468.0324613h-78.7003122c-1.9948374 0-4.1170912.1907101-6.0494377-.4000855-2.7447275-.8399361-4.9789778-2.9807586-5.935818-5.6864078-.4655911-1.3156813-.5174643-2.6319437-.5224054-3.9925438l-.0006305-.9662192c-.0045347-1.018498-.0605366-1.9607413-.7202883-2.8181523-.6541249-.8496745-1.679137-1.3471439-2.7487853-1.3528246h-13.2837667c-5.6939703 0-11.3887523-.00649226-17.0827226 0-3.4564738.0040577-6.8358484.8431822-9.8313508 2.5896-3.2625086 1.902232-5.9163403 4.7774915-7.5557104 8.1794355-1.2563093 2.6074537-1.8731019 5.4583671-1.8839229 8.3474226v421.3991528c0 1.732621.140672 3.448201.5578187 5.135377.9024651 3.647027 2.898114 6.991352 5.6809852 9.516029 2.7187572 2.466247 6.1395219 4.111224 9.763179 4.694715 1.2800477.205724 2.5637474.238439 3.8510993.241938l171.3058496-.000912c1.581748 0 3.18054.055184 4.753361-.128223 3.643947-.42362 7.132072-1.917651 9.953898-4.261356 2.884317-2.395644 5.018745-5.638528 6.084335-9.232805.564041-1.902232.783435-3.853156.783435-5.831672v-421.4640751c-.007574-2.6147575-.49127-5.191373-1.516282-7.6032474-1.481925-3.4879664-4.014022-6.4938825-7.199431-8.5470596-3.077471-1.9825738-6.670289-3.0156546-10.324785-3.0343198-1.725938-.00892685-3.451875-.01190247-5.177812-.01190247zm-61.062476 4.61978367c-1.345582 1.5816767.054375 4.064966 2.104399 3.7322377 1.098053-.1793487 1.907188-1.1475069 1.916927-2.2536256-.017855-2.0685962-2.666817-3.0708388-4.021326-1.4786121zm-9.497348-.0505487-.297702.0042702c-.098435.0017172-.195774.0032673-.291134.0032673h-23.174362c-1.24657.013796-1.975359 1.4899735-1.187326 2.4727393.664676.8285746 2.019996.5705073 2.945997.5705073h17.32944c1.722961 0 3.467835.0795302 5.189986 0 1.077764-.0495035 1.932346-1.0476884 1.465694-2.1254034-.371374-.8582768-1.182684-.9307304-1.980593-.9253807z" fill="#00274f" ></path>
</g>
</svg>