<svg height="482"  viewBox="0 0 240 482" width="240" fill="none" xmlns="http://www.w3.org/2000/svg">
<svg viewBox="0 0 1084 623" height="482" width="220" fill="none" xmlns="http://www.w3.org/2000/svg" >
<path opacity="0.7" d="M145.658 624L148.945 609.618L152.233 612.434L155.521 586.542L158.808 589.744L162.096 589.689L165.384 598.053L168.671 582.291L171.959 573.209L175.247 575.362L178.534 574.948L181.822 576.025L185.11 588.529L188.397 597.004L191.685 581.518L194.973 582.539L198.26 580.027L201.548 571.387L204.836 573.43L208.123 571.249L211.411 572.63L214.699 559.573L217.986 562.416L221.274 557.116L224.562 558.386L227.85 570.946L231.137 570.753L234.425 566.06L237.713 570.311L241 570.366L244.288 575.031L247.576 562.665L250.863 565.453L254.151 559.601L257.439 562.14L260.726 571.222L264.014 569.897L267.302 563.99L270.589 551.734L273.877 553.528L277.165 552.286L280.452 550.022L283.74 545.826L287.028 546.241L290.315 518.306L293.603 518.471L296.891 516.097L300.178 513.061L303.466 514.69L306.754 515.159L310.041 512.647L313.329 501.799L316.617 487.196L319.904 486.727L323.192 495.008L326.48 517.947L329.767 522.86L333.055 517.146L336.343 502.93L339.63 491.144L342.918 502.047L346.206 500.501L349.493 493.159L352.781 492.082L356.069 492.193L359.356 497.134L362.644 508.147L365.932 506.74L369.219 505.967L372.507 510.715L375.795 514.662L379.082 516.594L382.37 508.948L385.658 498.045L388.945 500.308L392.233 493.048L395.521 500.253L398.808 477.038L402.096 497.796L405.384 493.628L408.671 489.653L411.959 493.849L415.247 493.352L418.534 491.696L421.822 490.205L425.11 490.343L428.397 487.914L431.685 504.863L434.973 499.232L438.26 499.397L441.548 502.351L444.836 499.866L448.123 497.962L451.411 499.425L454.699 501.053L457.986 504.338L461.274 502.295L464.562 504.062L467.849 493.269L471.137 495.229L474.425 503.455L477.713 505.083L481 507.319L484.288 511.432L487.576 509.252L490.863 506.85L494.151 507.954L497.439 505.525L500.726 509.362L504.014 509.445L507.302 508.617L510.589 510.521L513.877 504.366L517.165 505.304L520.452 499.038L523.74 505.525L527.028 505.332L530.315 505.718L533.603 504.145L536.891 505.47L540.178 504.863L543.466 506.215L546.754 508.368L550.041 507.623L553.329 507.181L556.617 506.795L559.904 507.292L563.192 501.136L566.48 497.41L569.767 495.008L573.055 496.361L576.343 492.496L579.63 486.147L582.918 451.67L586.206 458.516L589.493 448.993L592.781 453.575L596.069 446.536L599.356 435.688L602.644 452.995L605.932 449.628L609.219 450.539L612.507 438.807L615.795 434.86L619.082 439.194L622.37 436.295L625.658 438.255L628.945 433.866L632.233 447.447L635.521 441.678L638.808 436.074L642.096 435.219L645.384 432.127L648.671 432.099L651.959 418.215L655.247 427.269L658.534 436.157L661.822 433.838L665.11 440.739L668.397 438.227L671.685 438.448L674.973 436.295L678.26 446.398L681.548 444.19L684.836 448.496L688.123 443.527L691.411 442.616L694.699 438.697L697.987 438.117L701.274 430.222L704.562 445.046L707.849 464.782L711.137 468.895L714.425 483.277L717.713 478.722L721 473.919L724.288 483.249L727.576 477.038L730.863 475.023L734.151 473.947L737.439 472.401L740.726 475.796L744.014 465.665L747.302 461.552L750.589 455.921L753.877 458.571L757.165 458.682L760.452 455.507L763.74 460.918L767.028 469.916L770.315 469.778L773.603 477.259L776.891 465.886L780.178 464.313L783.466 463.982L786.754 463.678L790.041 460.614L793.329 463.347L796.617 463.982L799.904 467.156L803.192 468.785L806.48 469.116L809.767 466.218L813.055 463.568L816.343 468.177L819.63 466.632L822.918 459.675L826.206 455.397L829.493 446.895L832.781 447.613L836.069 438.448L839.356 444.604L842.644 445.929L845.932 442.92L849.219 447.033L852.507 446.95L855.795 443.831L859.082 435.412L862.37 430.995L865.658 398.809L868.945 397.76L872.233 403.474L875.521 399.389L878.808 401.404L882.096 400.714L885.384 381.723L888.671 393.841L891.959 388.734L895.247 385.808L898.534 377.03L901.822 381.474L905.11 384.152L908.397 378.659L911.685 369.522L914.973 334.714L918.26 331.512L921.548 352.408L924.836 332.616L928.123 338.606L931.411 336.094L934.699 323.783L937.987 311.83L941.274 309.236L944.562 319.062L947.849 321.078L951.137 298.056L954.425 274.841L957.713 268.189L961 264.876L964.288 246.713L967.576 247.293L970.863 246.244L974.151 250.661L977.439 234.761L980.726 243.014L984.014 286.048L987.302 290.575L990.589 268.741L993.877 260.46L997.165 225.458L1000.45 236.555L1003.74 230.924L1007.03 223.195L1010.32 241.165L1013.6 234.761L1016.89 232.884L1020.18 233.049L1023.47 244.781L1026.75 248.618L1030.04 253.697L1033.33 259.825L1036.62 239.26L1039.9 234.347L1043.19 229.075L1046.48 223.775L1049.77 172.239L1053.05 128.487L1056.34 125.368L1059.63 95.0212L1062.92 104.765L1066.21 114.703L1069.49 107.636L1072.78 113.405L1076.07 102.391L1079.36 81.9471L1082.64 32.2605L1085.93 32.0396L1089.22 22.958L1092.51 15.8639L1095.79 -33.6295L1099.08 -43.0975L1102.37 -49.2255L1105.66 -127.095L1108.95 -150.503L1112.23 -107.138L1115.52 -190.004L1118.81 -240.85L1122.1 -335.751L1125.38 -358L1128.67 -350.795L1131.96 -308.037L1135.25 -189.342L1138.53 -183.959L1141.82 -261.332L1145.11 -300.474L1148.4 -253.989L1151.69 -233.701L1154.97 -243.61L1158.26 -242.81L1161.55 -249.186L1164.84 -205.766L1168.12 -84.365L1171.41 -160.606L1174.7 -124.777L1177.99 -130.712L1181.27 -136.646L1184.56 -131.788L1187.85 -82.3775L1191.14 -161.71L1194.42 -201.294L1197.71 -195.221L1201 -152.85" stroke="#00274f" stroke-width="5"></path>
<path d="M228.247 564.603C228.247 567.703 230.758 570.216 233.855 570.216C236.952 570.216 239.463 567.703 239.463 564.603C239.463 561.503 236.952 558.989 233.855 558.989C230.758 558.989 228.247 561.503 228.247 564.603Z" fill="#FCC800"></path>
<path d="M307.191 500.257C307.191 503.357 309.702 505.871 312.799 505.871C315.897 505.871 318.408 503.357 318.408 500.257C318.408 497.157 315.897 494.644 312.799 494.644C309.702 494.644 307.191 497.157 307.191 500.257Z" fill="#FCC800"></path>
<path d="M386.135 491.495C386.135 494.596 388.646 497.109 391.744 497.109C394.841 497.109 397.352 494.596 397.352 491.495C397.352 488.395 394.841 485.882 391.744 485.882C388.646 485.882 386.135 488.395 386.135 491.495Z" fill="#FCC800"></path>
<path d="M465.08 493.679C465.08 496.779 467.591 499.293 470.688 499.293C473.785 499.293 476.296 496.779 476.296 493.679C476.296 490.579 473.785 488.065 470.688 488.065C467.591 488.065 465.08 490.579 465.08 493.679Z" fill="#FCC800"></path>
<path d="M544 505.614C544 508.714 546.511 511.227 549.608 511.227C552.706 511.227 555.217 508.714 555.217 505.614C555.217 502.513 552.706 500 549.608 500C546.511 500 544 502.513 544 505.614Z" fill="#FCC800"></path>
<path d="M622.968 432.235C622.968 435.335 625.479 437.848 628.577 437.848C631.674 437.848 634.185 435.335 634.185 432.235C634.185 429.134 631.674 426.621 628.577 426.621C625.479 426.621 622.968 429.134 622.968 432.235Z" fill="#FCC800"></path>
<path d="M701.913 463.192C701.913 466.292 704.424 468.805 707.521 468.805C710.618 468.805 713.129 466.292 713.129 463.192C713.129 460.091 710.618 457.578 707.521 457.578C704.424 457.578 701.913 460.091 701.913 463.192Z" fill="#FCC800"></path>
<path d="M780.857 462.086C780.857 465.187 783.368 467.7 786.465 467.7C789.563 467.7 792.074 465.187 792.074 462.086C792.074 458.986 789.563 456.473 786.465 456.473C783.368 456.473 780.857 458.986 780.857 462.086Z" fill="#FCC800"></path>
<path d="M826.632 442.987C826.632 449.877 832.212 455.462 839.095 455.462C845.978 455.462 851.558 449.877 851.558 442.987C851.558 436.098 845.978 430.513 839.095 430.513C832.212 430.513 826.632 436.098 826.632 442.987Z" fill="#1ba558"></path>
<path d="M169 571C169 583.702 179.298 594 192 594C204.703 594 215 583.702 215 571C215 558.297 204.703 548 192 548C179.298 548 169 558.297 169 571Z" fill="#1ba558"></path>
<path d="M859.801 397.132C859.801 400.232 862.312 402.746 865.41 402.746C868.507 402.746 871.018 400.232 871.018 397.132C871.018 394.032 868.507 391.519 865.41 391.519C862.312 391.519 859.801 394.032 859.801 397.132Z" fill="#FCC800"></path>
<path d="M938.746 317.28C938.746 320.38 941.257 322.893 944.354 322.893C947.451 322.893 949.962 320.38 949.962 317.28C949.962 314.179 947.451 311.666 944.354 311.666C941.257 311.666 938.746 314.179 938.746 317.28Z" fill="#FCC800"></path>
<path d="M1017.69 242.901C1017.69 246.001 1020.2 248.514 1023.3 248.514C1026.4 248.514 1028.91 246.001 1028.91 242.901C1028.91 239.8 1026.4 237.287 1023.3 237.287C1020.2 237.287 1017.69 239.8 1017.69 242.901Z" fill="#FCC800"></path>
</svg>
<g fill="#000" fill-rule="evenodd">
<path d="m13.333333 10h213.333333v460h-213.333333z" fill="none"></path>
<path d="m237.810696 450.260946c-.002104 1.021622-.015611 2.041686-.098067 3.062269-.39848 4.91951-2.002953 9.716478-4.651103 13.882886-2.795857 4.397694-6.721417 8.036606-11.312465 10.499607-4.251 2.281217-9.042506 3.523673-13.865662 3.603204-1.627196.02678-3.256828.004869-4.884836.004869h-163.5247254c-2.1904256 0-4.3800396.003246-6.5704652 0-3.8468386-.004869-7.6530987-.672761-11.2426698-2.068596-4.8028673-1.867337-9.0985037-4.962521-12.39022886-8.926857-3.23085747-3.892921-5.46186153-8.583579-6.4414257-13.546911-.42850861-2.172473-.57540265-4.366045-.57540265-6.575036v-290.93314c-.10388088.138772-1.42349259.137149-1.52169248 0-.14689405-.205318 0-1.063919 0-1.305756v-27.163614c0-.48205-.1428362-1.225413 0-1.68961.01704296-.055996-.02678179-.179349.00973883-.217491.15500974-.161495 1.25955559 0 1.51195365 0v-9.669409c-.10388088.138772-1.42349259.137961-1.52169248 0-.14689405-.205317 0-1.063919 0-1.305755v-27.1636142c0-.4820503-.1428362-1.225414 0-1.6896105.01704296-.0559958-.02678179-.1793487.00973883-.2174907.15500974-.161495 1.25955559 0 1.51195365 0v-16.0821383c-.03489748.338409.06167927.2215483-.15825602.3473358-.1533866.0876455-1.27903325.0657342-1.36343646-.0340843-.08521478-.10063 0-.6329953 0-.7604059v-14.5661957c0-.0860225-.06330241-.5169462 0-.5802457.163937-.1655527 1.26523657-.0024346 1.52169248-.0024346v-25.467511c0-1.4331663.00892726-2.8606518.15095189-4.2897605.48775316-4.9089597 2.19204874-9.6767128 4.91729852-13.7879361 2.862405-4.31816409 6.8317905-7.87673383 11.4406927-10.24478549 4.3005059-2.20899129 9.0928227-3.36217889 13.9249064-3.37272881h174.3892041c3.68696 0 7.33334.59404174 10.799553 1.8689592 4.851561 1.78455984 9.216181 4.81238736 12.585006 8.7329006 3.290913 3.8304331 5.598205 8.4732102 6.663795 13.409762.499115 2.313679.685983 4.6573846.685983 7.0197556l.000605 68.574491c.150952-.2101869 1.205992-.0576188 1.521692-.0576188v48.6927574c-.369264 0-1.369117.177726-1.521692-.102253zm-35.628571-440.27558037-10.355625.01190247h-15.06435c-1.037185 0-2.039473.4771811-2.693598 1.2822213-.877036 1.0798791-.858821 2.4616483-.813674 3.8300724l.016497.5119177c.014367.5100609.017259 1.0127038-.037117 1.491305-.155821 1.3714898-.62572 2.7032146-1.366682 3.8685751-1.516823 2.3867169-4.119526 3.9619014-6.936483 4.1996804-2.292684.1931447-4.653539.0324613-6.949468.0324613h-78.7003122c-1.9948374 0-4.1170912.1907101-6.0494377-.4000855-2.7447275-.8399361-4.9789778-2.9807586-5.935818-5.6864078-.4655911-1.3156813-.5174643-2.6319437-.5224054-3.9925438l-.0006305-.9662192c-.0045347-1.018498-.0605366-1.9607413-.7202883-2.8181523-.6541249-.8496745-1.679137-1.3471439-2.7487853-1.3528246h-13.2837667c-5.6939703 0-11.3887523-.00649226-17.0827226 0-3.4564738.0040577-6.8358484.8431822-9.8313508 2.5896-3.2625086 1.902232-5.9163403 4.7774915-7.5557104 8.1794355-1.2563093 2.6074537-1.8731019 5.4583671-1.8839229 8.3474226v421.3991528c0 1.732621.140672 3.448201.5578187 5.135377.9024651 3.647027 2.898114 6.991352 5.6809852 9.516029 2.7187572 2.466247 6.1395219 4.111224 9.763179 4.694715 1.2800477.205724 2.5637474.238439 3.8510993.241938l171.3058496-.000912c1.581748 0 3.18054.055184 4.753361-.128223 3.643947-.42362 7.132072-1.917651 9.953898-4.261356 2.884317-2.395644 5.018745-5.638528 6.084335-9.232805.564041-1.902232.783435-3.853156.783435-5.831672v-421.4640751c-.007574-2.6147575-.49127-5.191373-1.516282-7.6032474-1.481925-3.4879664-4.014022-6.4938825-7.199431-8.5470596-3.077471-1.9825738-6.670289-3.0156546-10.324785-3.0343198-1.725938-.00892685-3.451875-.01190247-5.177812-.01190247zm-61.062476 4.61978367c-1.345582 1.5816767.054375 4.064966 2.104399 3.7322377 1.098053-.1793487 1.907188-1.1475069 1.916927-2.2536256-.017855-2.0685962-2.666817-3.0708388-4.021326-1.4786121zm-9.497348-.0505487-.297702.0042702c-.098435.0017172-.195774.0032673-.291134.0032673h-23.174362c-1.24657.013796-1.975359 1.4899735-1.187326 2.4727393.664676.8285746 2.019996.5705073 2.945997.5705073h17.32944c1.722961 0 3.467835.0795302 5.189986 0 1.077764-.0495035 1.932346-1.0476884 1.465694-2.1254034-.371374-.8582768-1.182684-.9307304-1.980593-.9253807z" fill="#000" ></path>
</g>
</svg>