<svg height="482" viewBox="0 0 240 482" width="240" xmlns="http://www.w3.org/2000/svg"><g fill="none" fill-rule="evenodd"><path d="m13.333333 10h213.333333v460h-213.333333z" fill="#fbfbfb"/><g transform="translate(13.067102 9.994444)"><path d="m0 0h213.333333v460h-213.333333z" fill="#fbfbfb"/><path d="m89.8186667 40.4053333c2.512 0 4.352-1.28 4.352-3.424 0-1.312-.64-2.288-2.272-3.36-1.232-.8-1.536-1.296-1.536-1.856 0-.832.784-1.424 1.712-1.424.304 0 .576.048.832.128l.144 1.968h1.568l.24-2.256c-.672-.512-1.92-.848-3.104-.848-2.336 0-4 1.28-4 3.328 0 1.152.48 2.256 2.224 3.44 1.2.816 1.424 1.376 1.424 1.92 0 .928-.704 1.376-1.728 1.376-.304 0-.672-.064-1.04-.144l-.192-2.112h-1.552l-.224 2.416c.816.544 1.936.848 3.152.848zm12.2560003-.16 1.44-.16c1.568-1.648 2.864-3.392 3.664-4.8.512-.896.656-1.408.656-1.92 0-.592-.064-.864-.288-1.168-.192-.128-.48-.24-.784-.24-.864 0-1.52.464-1.52 1.424 0 .496.24 1.04.432 1.552l.208.576c-.512.88-1.024 1.696-1.6 2.512l-.816-5.568h-1.696c-.768 1.648-1.552 3.296-2.3200003 4.928-.112-1.216-.224-2.448-.336-3.68-.096-1.12-.512-1.664-1.408-1.664-.832 0-1.632.592-2.608 1.792l.368.48c.224-.208.464-.352.608-.352.176 0 .304.048.352.432.272 1.904.56 3.792.832 5.696l.192.16 1.632-.16 2.1120003-4.32.688 4.32zm12.32.096c1.248 0 2.352-1.168 2.896-2.208l-.528-.336c-.464.608-.72.944-.976.944-.176 0-.256-.112-.256-.32 0-.16.048-.336.112-.592l1.28-5.568-.256-.224-1.264.528c-.448-.368-.96-.528-1.504-.528-2.48 0-5.584 3.056-5.584 5.936 0 1.776.832 2.368 1.744 2.368.928 0 1.968-.672 2.816-1.584 0 1.04.592 1.584 1.52 1.584zm-2.496-1.856c-.528 0-.848-.384-.848-1.408s.48-2.784 1.216-3.424c.32-.288.576-.384.864-.384.256 0 .528.064.784.176l-.88 4c-.032.176-.064.352-.096.512-.304.272-.688.528-1.04.528zm11.776 1.856c1.472 0 2.608-1.072 3.232-2.192l-.528-.336c-.48.64-.8.928-1.024.928-.144 0-.224-.112-.224-.32 0-.16.048-.336.112-.592l.768-3.04c.128-.496.176-.928.176-1.328 0-.96-.592-1.424-1.296-1.424-1.024 0-2.112.576-3.232 1.664l.272-1.408-.336-.288-3.488.944-.112.656.928.176-1.296 6.224.256.208 2.48-.128c.224-1.168.432-2.304.688-3.456l.416-1.936c.576-.56 1.104-.8 1.52-.8.208 0 .368.144.368.4 0 .24-.064.64-.192 1.12l-.56 2.224c-.112.416-.272 1.04-.272 1.552 0 .736.48 1.152 1.344 1.152z" fill="#00305e" fill-rule="nonzero"/><path d="m213.333333 55.333333h-213.333333" stroke="#e5e3e3" stroke-width="1.333333"/><path d="m200.333333 237h-187.333333" stroke="#e5e3e3" stroke-dasharray="2" stroke-linecap="square" stroke-width=".666667"/><g transform="translate(13.333333 400)"><rect fill="#00305e" height="40" rx="4" width="186.666667"/><path d="m64.7386667 24.128c1.2693333 0 2.624-.7573333 2.624-2.2613333 0-2.6026667-3.3813334-2.0586667-3.3813334-3.232 0-.3306667.2773334-.6293334.8106667-.6293334.4906667 0 .8426667.1706667 1.376.544.0853333.064.16.0533334.224-.0426666l.6933333-.8426667c.064-.0853333.064-.1493333-.0213333-.224-.608-.5973333-1.3653333-.992-2.3253333-.992-1.2266667 0-2.3786667.7893333-2.3786667 2.1546667 0 2.4426666 3.3813333 2.0693333 3.3813333 3.232 0 .4693333-.448.736-.96.736-.6186666 0-1.0986666-.2346667-1.6426666-.6826667-.0853334-.0746667-.1813334-.0533333-.2346667.0213333l-.736.8213334c-.064.0746666-.064.1493333-.0106667.224.4586667.608 1.4613334 1.1733333 2.5813334 1.1733333zm5.9093333-.128c.096 0 .16-.064.16-.16v-3.776h.8533333c.096 0 .16-.064.16-.16v-.9706667c0-.096-.064-.16-.16-.16h-.8533333v-1.44c0-.096-.064-.16-.16-.16h-1.28c-.096 0-.16.064-.16.16v1.44h-.8533333c-.096 0-.16.064-.16.16v.9706667c0 .096.064.16.16.16h.8533333v3.776c0 .096.064.16.16.16zm4.5333333.0746667c.6826667 0 1.1626667-.2773334 1.4933334-.6826667l.064.448c.0106666.096.064.16.16.16h1.088c.096 0 .16-.064.16-.16v-4.9066667c0-.096-.064-.16-.16-.16h-1.088c-.096 0-.1493334.064-.16.16l-.0533334.48c-.352-.448-.8426666-.7466666-1.504-.7466666-1.4613333 0-2.528 1.2053333-2.528 2.7306666 0 1.4933334 1.0666667 2.6773334 2.528 2.6773334zm.192-1.4613334c-.6826666 0-1.184-.5013333-1.184-1.2266666 0-.7466667.5013334-1.2586667 1.184-1.2586667.704 0 1.1733334.5546667 1.1733334 1.2586667 0 .7146666-.4693334 1.2266666-1.1733334 1.2266666zm5.472 1.3866667c.096 0 .16-.064.16-.16v-2.6026667c0-.64.3946667-1.1306666 1.056-1.1306666.2026667 0 .3306667.0533333.4373334.0853333.128.032.224.0106667.2666666-.1173333l.352-.9173334c.032-.0746666.032-.16-.0533333-.2346666-.1493333-.1386667-.416-.2666667-.7253333-.2666667-.64 0-1.0773334.3733333-1.344.8853333l-.0426667-.608c-.0106667-.096-.064-.16-.16-.16h-1.2266667c-.096 0-.16.064-.16.16v4.9066667c0 .096.064.16.16.16zm5.248 0c.096 0 .16-.064.16-.16v-3.776h.8533334c.096 0 .16-.064.16-.16v-.9706667c0-.096-.064-.16-.16-.16h-.8533334v-1.44c0-.096-.064-.16-.16-.16h-1.28c-.096 0-.16.064-.16.16v1.44h-.8533333c-.096 0-.16.064-.16.16v.9706667c0 .096.064.16.16.16h.8533333v3.776c0 .096.064.16.16.16zm7.616.128c1.2693334 0 2.624-.7573333 2.624-2.2613333 0-2.6026667-3.3813333-2.0586667-3.3813333-3.232 0-.3306667.2773333-.6293334.8106667-.6293334.4906666 0 .8426666.1706667 1.376.544.0853333.064.16.0533334.224-.0426666l.6933333-.8426667c.064-.0853333.064-.1493333-.0213333-.224-.608-.5973333-1.3653334-.992-2.3253334-.992-1.2266666 0-2.3786666.7893333-2.3786666 2.1546667 0 2.4426666 3.3813333 2.0693333 3.3813333 3.232 0 .4693333-.448.736-.96.736-.6186667 0-1.0986667-.2346667-1.6426667-.6826667-.0853333-.0746667-.1813333-.0533333-.2346666.0213333l-.736.8213334c-.064.0746666-.064.1493333-.0106667.224.4586667.608 1.4613333 1.1733333 2.5813333 1.1733333zm6.0906667-.0533333c.682667 0 1.162667-.2773334 1.493333-.6826667l.064.448c.010667.096.064.16.16.16h1.088c.096 0 .16-.064.16-.16v-4.9066667c0-.096-.064-.16-.16-.16h-1.088c-.096 0-.149333.064-.16.16l-.053333.48c-.352-.448-.842667-.7466666-1.504-.7466666-1.4613333 0-2.528 1.2053333-2.528 2.7306666 0 1.4933334 1.0666667 2.6773334 2.528 2.6773334zm.192-1.4613334c-.6826667 0-1.184-.5013333-1.184-1.2266666 0-.7466667.5013333-1.2586667 1.184-1.2586667.704 0 1.173333.5546667 1.173333 1.2586667 0 .7146666-.469333 1.2266666-1.173333 1.2266666zm7.2 1.3866667c.085333 0 .16-.0426667.192-.128l1.962667-4.9173333c.042666-.1173334-.010667-.1813334-.128-.1813334h-1.290667c-.085333 0-.16.0426667-.192.128l-1.173333 3.2213334-1.173334-3.2213334c-.032-.0853333-.106666-.128-.192-.128h-1.290666c-.117334 0-.170667.064-.128.1813334l1.962666 4.9173333c.032.0853333.106667.128.192.128zm4.021333-6.144c.48 0 .853334-.384.853334-.8533333 0-.48-.373334-.864-.853334-.864s-.853333.384-.853333.864c0 .4693333.373333.8533333.853333.8533333zm.64 6.144c.096 0 .16-.064.16-.16v-4.9066667c0-.096-.064-.16-.16-.16h-1.28c-.096 0-.16.064-.16.16v4.9066667c0 .096.064.16.16.16zm2.912 0c.096 0 .16-.064.16-.16v-2.7413333c0-.256.298667-.96 1.013334-.96.426666 0 .896.2453333.896 1.088v2.6133333c0 .096.064.16.16.16h1.28c.096 0 .16-.064.16-.16v-2.9333333c0-1.3973334-.842667-2.2506667-1.898667-2.2506667-.746667 0-1.28.3946667-1.610667.9386667l-.042666-.6613334c-.010667-.096-.064-.16-.16-.16h-1.237334c-.096 0-.16.064-.16.16v4.9066667c0 .096.064.16.16.16zm7.509334 2.112c1.194666 0 2.784-.48 2.784-2.1546667v-5.024c0-.096-.064-.16-.16-.16h-1.162667c-.096 0-.149333.064-.16.16l-.032.416c-.373333-.416-.874667-.6933333-1.493333-.6933333-1.450667 0-2.517334 1.216-2.517334 2.688s1.066667 2.688 2.517334 2.688c.661333 0 1.173333-.288 1.536-.704v.4906667c0 .8-.885334.992-1.44.992-.618667 0-1.12-.1173334-1.610667-.4053334-.096-.0533333-.149333-.0213333-.213333.064l-.416.7466667c-.042667.0853333-.032.16.042666.2133333.554667.4053334 1.408.6826667 2.325334.6826667zm-.021334-3.5413333c-.682666 0-1.184-.5546667-1.184-1.2373334 0-.672.501334-1.2266666 1.184-1.2266666.672 0 1.173334.5866666 1.173334 1.2266666s-.501334 1.2373334-1.173334 1.2373334z" fill="#fff" fill-rule="nonzero"/></g><g transform="translate(22.297333 84.81784)"><path d="m4.01317564 30.7127815c2.75861508 0 4.59082957-1.5633474 4.59082957-3.9495092 0-1.2547919-.51466699-2.3244506-2.8409618-4.1346423-1.46165426-1.1107995-2.01749461-1.9130435-2.01749461-3.0032726 0-1.5222066 1.15285406-2.2833099 3.17034867-2.2833099.4117336 0 .80288051.0411407 1.35872086.2468443l.12352008 2.5301543h1.2146141l.47349359-2.8798504c-1.15285402-.6788219-2.30570808-.9256662-3.41738878-.9256662-2.61450832 0-4.48789617 1.5839177-4.48789617 3.7643759 0 1.2753623.53525367 2.4478728 2.65568168 4.0523609 1.83221449 1.4193548 2.120428 2.1598878 2.120428 3.085554 0 1.4193548-.96757394 2.4684432-3.02624191 2.4684432-.59701371 0-1.19402742-.0822815-1.74986777-.2468444l-.24704016-2.571295h-1.17344074l-.39114692 2.9209912c.86464055.57597 2.40864153.9256662 3.64384231.9256662zm13.29899506-.0411408c1.3793076 0 2.6762684-1.316503 3.4791489-2.5095839l-.4940803-.3908368c-.7205338.8845255-1.5028276 1.4810659-2.0174946 1.4810659-.2676269 0-.4940804-.1645629-.4940804-.4525479 0-.226274.0617601-.6582515.1852802-1.1725105l1.6469343-7.2613371-.3705602-.1851332-.9469873.7611033c-.3293868-.3496961-.6999471-.5553997-1.1734407-.5553997-2.6556817 0-6.361284 4.2786348-6.361284 7.8578775 0 1.7073398.9675739 2.4273024 1.9557345 2.4273024 1.1116807 0 2.4086416-.9256662 3.602669-2.2833099-.06176.3702665-.0823467.6993922-.0823467 1.0902291 0 .8228144.514667 1.1930808 1.0705073 1.1930808zm-3.7056023-1.4193548c-.7411205 0-1.2352008-.5965404-1.2352008-1.8513324 0-1.8101917.7822938-3.4352501 1.7704544-4.4637681.7411205-.7611033 1.6057611-1.1930809 2.2645348-1.1930809.4323203 0 .8646406.1645629 1.2557875.3908368l-1.1116807 5.14259c-1.3587209 1.481066-2.2233614 1.9747546-2.9438952 1.9747546zm10.7874201 1.2959327.5970137-.0617111c2.0998414-2.1393174 3.9938159-4.628331 4.9613898-6.459093.9881607-1.8307621 1.029334-2.3655914 1.029334-2.797569 0-.3291258-.0205867-.4525479-.1029334-.5759701-.1235201-.1439925-.3911469-.2674146-.7822938-.2674146-.6793604 0-1.1116807.4319775-1.1116807 1.4604955 0 .2057036.0411734.5348294.0823467.802244l.1441068.8022441c-.0205867.0411407-.0411734.0822814-.0617601.1234221-1.0087473 1.8924732-2.0380813 3.4763909-3.4997355 5.1837308-.0205867-2.3861618-.1235201-4.8957457-.4117336-6.7470781-.1852801-1.1313698-.5352537-1.6250584-1.3793075-1.6250584-.967574 0-1.8733879.8433847-2.5939217 2.4478728l.4734936.3291257c.7205338-1.0696587 1.029334-1.3576437 1.3998943-1.3576437.2882135 0 .4940803.1439925.576427.9668069.3088002 2.1804582.452907 4.4431978.5352537 7.6727443zm10.2521665.1234221c1.5028276 0 2.8409618-1.1519401 3.7056024-2.5507246l-.4734937-.3702665c-.5558403.6993923-1.4822409 1.5016363-2.7792017 1.5016363-1.2557875 0-2.0380813-.6993922-2.120428-2.4478728 4.6937629-1.3576438 5.9907237-3.2089762 5.9907237-4.5254792 0-1.2136513-.7205337-1.8924731-2.0586679-1.8924731-2.8821352 0-5.3731234 3.147265-5.3731234 6.459093 0 2.6330061 1.2969608 3.8260869 3.1085886 3.8260869zm-1.667521-4.6694717c.2058668-2.571295 2.2027747-4.7311828 3.4791488-4.7311828.6793605 0 1.1528541.4525479 1.1528541 1.2136513 0 1.1107994-1.2146141 2.5301542-4.6320029 3.5175315zm79.23813 4.4020571c4.179096 0 8.111152-2.6535765 8.131739-8.1047219 0-3.5175315-2.264535-5.6774193-5.784857-5.6774193h-5.640751l-.164693.8433847 1.873388.226274c-.288214 1.769051-.597014 3.5381019-.926401 5.3071529l-1.194027 6.3562412-1.770455.226274-.164693.8228144zm.288214-.9462366h-2.202775c.288213-1.8101917.6176-3.6203834.946987-5.430575l1.214614-6.4385227h1.255788c2.923308 0 4.693763 1.6456288 4.673176 4.7106124-.020587 3.4146798-1.955735 7.1584853-5.88779 7.1584853zm12.722568 1.2136512c2.882135 0 5.27019-3.1061243 5.27019-6.685367 0-2.3244506-1.399895-3.5998129-3.335042-3.5998129-2.923309 0-5.373124 2.9621318-5.373124 6.6647966 0 2.345021 1.523414 3.6203833 3.437976 3.6203833zm.226453-.8228144c-1.152854 0-1.976321-.8845254-1.976321-3.0444132 0-3.0649837 1.502827-5.595138 3.458562-5.595138 1.111681 0 1.893975.8639552 1.893975 3.085554 0 2.7564283-1.358721 5.5539972-3.376216 5.5539972zm7.946458.8228144c1.461655 0 2.490989-1.2959326 3.376216-2.5095839l-.473494-.3908368c-.823467.9462365-1.523414 1.4810659-1.955734 1.4810659-.267627 0-.514667-.1645629-.514667-.4731183 0-.2057036.06176-.6376811.18528-1.1930809l2.470401-12.2393641-.226453-.1645629-3.540909 1.028518-.082347.5965404 1.935148.1234222c-.18528 1.2342216-.411733 2.4478728-.658774 3.6615241l-1.48224 7.5081813c-.123521.7199626-.185281 1.0902291-.185281 1.3782142 0 .802244.514667 1.1930808 1.152854 1.1930808zm5.743684 0c1.461654 0 2.490988-1.2959326 3.376216-2.5095839l-.473494-.3908368c-.823467.9462365-1.523414 1.4810659-1.955735 1.4810659-.267626 0-.514667-.1645629-.514667-.4731183 0-.2057036.06176-.6376811.18528-1.1930809l2.470402-12.2393641-.226453-.1645629-3.540909 1.028518-.082347.5965404 1.935148.1234222c-.18528 1.2342216-.411734 2.4478728-.658774 3.6615241l-1.482241 7.5081813c-.12352.7199626-.18528 1.0902291-.18528 1.3782142 0 .802244.514667 1.1930808 1.152854 1.1930808zm10.54038 0c1.379308 0 2.676268-1.316503 3.479149-2.5095839l-.49408-.3908368c-.720534.8845255-1.502828 1.4810659-2.017495 1.4810659-.267627 0-.49408-.1645629-.49408-.4525479 0-.226274.06176-.6582515.18528-1.1725105l1.646934-7.2613371-.37056-.1851332-.946987.7611033c-.329387-.3496961-.699947-.5553997-1.173441-.5553997-2.655682 0-6.361284 4.2786348-6.361284 7.8578775 0 1.7073398.967574 2.4273024 1.955735 2.4273024 1.11168 0 2.408641-.9256662 3.602668-2.2833099-.06176.3702665-.082346.6993922-.082346 1.0902291 0 .8228144.514667 1.1930808 1.070507 1.1930808zm-3.705602-1.4193548c-.741121 0-1.235201-.5965404-1.235201-1.8513324 0-1.8101917.782294-3.4352501 1.770454-4.4637681.741121-.7611033 1.605761-1.1930809 2.264535-1.1930809.43232 0 .864641.1645629 1.255788.3908368l-1.111681 5.14259c-1.358721 1.481066-2.223361 1.9747546-2.943895 1.9747546zm8.749339 1.316503 1.379307-.1645628c.267627-1.4604956.514667-2.8798504.823467-4.3197756l.247041-1.0696588c.74112-1.4399252 1.544-2.571295 2.532161-3.3941094.411734.3085554.864641.5348294 1.214614.5348294.679361 0 1.070508-.4731183 1.091094-1.1519402-.288213-.4525479-.80288-.6171107-1.379307-.6171107-1.091094 0-2.223362 1.4193548-3.108589 2.9621318l.452907-2.7564282-.267627-.2057036-3.396802 1.0490883-.082347.5965404 2.038082.1234222-1.749868 8.2487144zm9.758086.1028518c2.079254 0 3.479149-1.2136512 3.479149-2.9209911 0-1.1930809-.432321-1.8101917-1.667521-2.7358579-1.173441-.8639551-1.523415-1.2753623-1.523415-2.1393174 0-.9256662.535254-1.6867695 1.955735-1.6867695.102933 0 .205867 0 .288213.0205703l.185281.5965405c.205866.6171108.576427.9668069 1.04992.9668069.37056 0 .658774-.1851332.782294-.5759701-.3088-1.3370734-1.235201-1.8101916-2.449815-1.8101916-1.976321 0-3.273282 1.2753623-3.273282 2.8798503 0 1.2959327.782294 2.0364657 1.811628 2.8181394 1.173441.8433847 1.338134 1.3782141 1.338134 2.0364656 0 1.0696587-.844054 1.7484806-2.264535 1.7484806-.102933 0-.205867 0-.288213-.0205704l-.226454-.8845254c-.144106-.5759701-.391147-.9050959-.98816-.9050959-.329387 0-.658774.226274-.761707.5759701.144106 1.2342216.946987 2.0364656 2.552748 2.0364656zm-140.8437693 36.4637682.5970137-.0617111c2.120428-2.2010285 3.8497091-4.5871903 4.8172831-6.4590931.9083347-1.6968448 1.0401117-2.27709 1.0493558-2.702842l.0005648-.0535862c0-.3291258-.0411733-.4936886-.12352-.6171108-.1235201-.1439925-.3499736-.2468443-.6793605-.2674147-.638187 0-1.2352007.4319776-1.2352007 1.4604956 0 .1851332.0411733.5965404.1029333.8433847l.1646935.7199626c-.0411734.0617111-.0617601.1234222-.1029334.1851333-1.029334 1.8924731-1.9763213 3.2912576-3.3762155 5.0191678-.0411733-1.6250584-.2676268-7.5698925-.2882135-7.9812997h-.8440539c-1.2763741 3.0032726-2.696855 5.5745676-4.1996826 7.7755961-.0205867-2.2833099-.1029334-4.9368864-.3911469-6.6442263-.1646935-.9873772-.514667-1.3782141-1.3793076-1.3782141-.9264006 0-1.8116278.8433848-2.5321616 2.4478729l.4734937.3291257c.6587737-.9873773 1.0087473-1.3576437 1.3998942-1.3576437.3088002 0 .4940803.1028518.576427.9050958.2882135 2.0776064.452907 4.4226274.4734936 7.7344554l.1441068.1028518.6176004-.0617111c1.6469344-1.8719028 3.1909353-4.5460496 4.2614427-6.5413745.0823467 1.7073399.2882135 5.7185601.3293869 6.5002338zm10.4580333.1234221c2.8821352 0 5.27019-3.1061243 5.27019-6.685367 0-2.3244507-1.3998942-3.599813-3.3350421-3.599813-2.9233085 0-5.3731234 2.9621319-5.3731234 6.6647967 0 2.345021 1.5234143 3.6203833 3.4379755 3.6203833zm.2264535-.8228144c-1.1528541 0-1.9763213-.8845255-1.9763213-3.0444133 0-3.0649836 1.5028276-5.5951379 3.4585622-5.5951379 1.1116807 0 1.8939745.8639551 1.8939745 3.085554 0 2.7564283-1.3587208 5.5539972-3.3762154 5.5539972zm7.0406444.7199626 1.3793076-.1645629c.2676268-1.4604955.514667-2.8798504.8234672-4.3197756l.2470401-1.0696587c.7411205-1.4399252 1.544001-2.571295 2.5321616-3.3941094.4117336.3085554.8646406.5348294 1.2146141.5348294.6793604 0 1.0705074-.4731183 1.091094-1.1519402-.2882135-.4525479-.8028805-.6171108-1.3793075-.6171108-1.091094 0-2.2233614 1.4193549-3.1085886 2.9621319l.4529069-2.7564283-.2676268-.2057036-3.3968022 1.0490884-.0823467.5965404 2.0380813.1234222-1.7498678 8.2487143zm9.449286.1028518c1.3998942 0 2.6556817-1.2753623 3.5203222-2.5095839l-.514667-.3908368c-.8234671.9873772-1.4616542 1.4810659-2.0174946 1.4810659-.2470401 0-.4940803-.1645629-.4940803-.4731183 0-.2057036.0617601-.6376812.1852801-1.1930809l1.2557875-5.9036933 2.6556817.0822814.1646934-1.1107994h-2.6145083l.5970137-2.7769986h-1.0499207l-.9675739 2.7564282-2.2233614.2057036-.1441068.8228144h2.0998414l-1.3793076 6.4590931c-.1646934.8433847-.2058668 1.1930809-.2058668 1.5016363 0 .6993922.5352537 1.0490883 1.1322674 1.0490883zm11.569714 0c1.3998942 0 2.7380284-1.2959327 3.5409089-2.5095839l-.4940803-.3908368c-.7411205.9256662-1.5234143 1.4810659-2.0174946 1.4810659-.2470402 0-.4117336-.1439925-.4117336-.4319776 0-.2057036.1235201-.6171108.2676268-1.1930809l.9264006-3.8055166c.1646934-.6788218.3499736-1.3576437.3499736-2.0158952 0-.9462366-.4734937-1.4193549-1.3381342-1.4193549-1.2352008 0-2.9233085 1.0079477-4.240856 2.28331l1.4822409-7.3230482-.2058668-.1645628-3.5614956 1.0285179-.0823467.5965405 1.9557346.1234221c-.2058668 1.2342216-.4323203 2.4478729-.6793605 3.6615241l-1.9969079 9.8120617.2058668.1645629 1.3793075-.1645629c.2264535-1.4399252.4940804-2.8798504.7822939-4.3197756l.5352536-2.5301542c1.5028277-1.2136513 2.635095-1.7896214 3.3762155-1.7896214.452907 0 .7205338.226274.7205338.9462366 0 .4114072-.1646934 1.0902291-.3293869 1.7896213l-.8852272 3.6203834c-.2058668.8433847-.3293869 1.1930809-.3293869 1.6661991 0 .5348294.3911469.8845255 1.0499207.8845255zm12.7843281 0c2.8821351 0 5.27019-3.1061243 5.27019-6.685367 0-2.3244507-1.3998942-3.599813-3.3350421-3.599813-2.9233086 0-5.3731234 2.9621319-5.3731234 6.6647967 0 2.345021 1.5234143 3.6203833 3.4379755 3.6203833zm.2264534-.8228144c-1.152854 0-1.9763212-.8845255-1.9763212-3.0444133 0-3.0649836 1.5028276-5.5951379 3.4585622-5.5951379 1.1116807 0 1.8939745.8639551 1.8939745 3.085554 0 2.7564283-1.3587208 5.5539972-3.3762155 5.5539972zm4.0761626 5.6979897c.6587738 0 1.3381342-.2468443 2.1821881-1.0079476 1.152854-1.028518 1.6881077-2.6535764 2.120428-4.854605.514667-2.5918653.9469872-5.4100046 1.3793075-8.0224404l2.6556817.0822815.1646934-1.0902291h-2.6556816c.0205866-.0822814.0205866-.1439925.0411733-.226274.514667-3.147265 1.4410676-4.2992052 2.4909883-4.7723235l.3293868.3908369c.6587738.802244 1.0087473 1.1313698 1.6263477 1.1313698.3705603 0 .6587738-.2057036.8028805-.6993923-.1646934-.7611033-1.1116807-1.5016362-2.3262948-1.5016362-1.3381341 0-3.7056023.9462365-4.4055494 5.4922861l-.0205867.1851332-2.1410147.1851332-.1646934.7816737h2.1410147c-.4323203 2.7769986-.8440539 5.3071529-1.3381342 8.0635811-.3911469 2.1393175-.7411205 3.2912576-1.2557875 4.052361-.2882135.3908368-.576427.6788218-.8440538.8845254l-.2470402-.2468443c-.452907-.4525479-.9058139-.8433847-1.5028276-.8433847-.452907 0-.8646406.3085554-.9469873.7405329.1852801.7816737.9881606 1.2753623 1.9145612 1.2753623zm18.0956915-5.14259c3.3556285 0 5.7025105-1.4810659 5.7025105-3.8260869 0-1.5839177-1.091094-2.9827022-3.088002-3.4352501 1.893974-.4936887 3.273282-1.7896214 3.273282-3.5175316 0-1.6661992-1.255788-3.0032726-3.993816-3.0032726h-5.2496033l-.1646935.8433848 1.8733879.226274c-.2882135 1.7690509-.5970137 3.5381019-.9264006 5.3071528l-1.1940274 6.3562413-1.7704545.2262739-.1646934.8228144zm.3499735-7.6727442h-1.1322674l.967574-5.14259h1.4410676c1.6675208 0 2.4704018.9668069 2.4704018 2.3244506 0 1.5839178-1.132268 2.8181394-3.746776 2.8181394zm-.5558403 6.7265077h-1.7704545c.2882135-1.8101917.6176004-3.6203834.9469873-5.4305751l.06176-.3496961h1.5234143c1.8733879 0 3.2321092.9462366 3.2321092 2.6330061 0 1.7484806-1.091094 3.1472651-3.9938163 3.1472651zm11.8991013-11.8690977c.638187 0 1.214614-.6376812 1.214614-1.2959327 0-.740533-.452907-1.1930809-1.111681-1.1930809-.638187 0-1.214614.5965405-1.214614 1.2753623 0 .7611033.452907 1.2136513 1.111681 1.2136513zm-1.914562 13.0827489c1.395216 0 2.434035-1.1620553 3.331319-2.3411496l.127244-.1684343-.514667-.3908368c-.823468.9873772-1.482241 1.4810659-1.976322 1.4810659-.226453 0-.452907-.1645629-.452907-.4525479 0-.226274.082347-.6582516.18528-1.1725106l1.461655-7.0350631-.267627-.2057036-3.499736 1.0490884-.082346.5965404 2.038081.1234222-1.235201 5.9654044c-.18528.8433847-.226453 1.1930809-.226453 1.5016363 0 .6993922.55584 1.0490883 1.11168 1.0490883zm6.299524 0c1.399895 0 2.655682-1.2753623 3.520323-2.5095839l-.514667-.3908368c-.823468.9873772-1.461655 1.4810659-2.017495 1.4810659-.24704 0-.49408-.1645629-.49408-.4731183 0-.2057036.06176-.6376812.18528-1.1930809l1.255787-5.9036933 2.655682.0822814.164693-1.1107994h-2.614508l.597014-2.7769986h-1.049921l-.967574 2.7564282-2.223361.2057036-.144107.8228144h2.099841l-1.379307 6.4590931c-.164694.8433847-.205867 1.1930809-.205867 1.5016363 0 .6993922.535254 1.0490883 1.132267 1.0490883zm7.987632 0c1.399894 0 2.902722-1.1107994 3.726189-2.5507246l-.473494-.3702665c-.576427.6993922-1.42048 1.5016363-2.511575 1.5016363-1.35872 0-2.285121-.8639551-2.285121-2.6535765 0-2.5301542 1.502828-4.8134642 3.273282-5.430575l.617601.6993922c.37056.4114072.761707.740533 1.214614.740533.391147 0 .782293-.2057036.86464-.7199626-.226453-.8845255-.967574-1.5016363-2.223361-1.5016363-2.593922 0-5.290777 2.9621319-5.290777 6.4385227 0 2.571295 1.276374 3.8466573 3.088002 3.8466573zm8.728752 0c2.882135 0 5.27019-3.1061243 5.27019-6.685367 0-2.3244507-1.399894-3.599813-3.335042-3.599813-2.923308 0-5.373123 2.9621319-5.373123 6.6647967 0 2.345021 1.523414 3.6203833 3.437975 3.6203833zm.226454-.8228144c-1.152854 0-1.976322-.8845255-1.976322-3.0444133 0-3.0649836 1.502828-5.5951379 3.458563-5.5951379 1.11168 0 1.893974.8639551 1.893974 3.085554 0 2.7564283-1.358721 5.5539972-3.376215 5.5539972zm10.149233-12.2599345c.638187 0 1.214614-.6376812 1.214614-1.2959327 0-.740533-.452907-1.1930809-1.111681-1.1930809-.638187 0-1.214614.5965405-1.214614 1.2753623 0 .7611033.452907 1.2136513 1.111681 1.2136513zm-1.914561 13.0827489c1.395215 0 2.434034-1.1620553 3.331318-2.3411496l.127244-.1684343-.514667-.3908368c-.823467.9873772-1.482241 1.4810659-1.976321 1.4810659-.226454 0-.452907-.1645629-.452907-.4525479 0-.226274.082346-.6582516.18528-1.1725106l1.461654-7.0350631-.267627-.2057036-3.499735 1.0490884-.082347.5965404 2.038081.1234222-1.235201 5.9654044c-.18528.8433847-.226453 1.1930809-.226453 1.5016363 0 .6993922.55584 1.0490883 1.111681 1.0490883zm11.46678 0c1.420481 0 2.758615-1.2959327 3.561496-2.5095839l-.494081-.3908368c-.74112.9256662-1.523414 1.4810659-2.038081 1.4810659-.226453 0-.391147-.1439925-.391147-.4319776 0-.2057036.12352-.6171108.267627-1.1930809l.926401-3.8055166c.164693-.6788218.329387-1.3576437.329387-2.0158952 0-.9462366-.452907-1.4193549-1.317548-1.4193549-1.255787 0-2.943895 1.028518-4.302616 2.3244507l.43232-2.1187471-.267627-.2057036-3.499735 1.0490884-.082347.5965404 2.038081.1234222-1.749867 8.2487143.205866.1645629 1.379308-.1645629c.267627-1.4604955.514667-2.8798504.823467-4.3197756l.555841-2.4890135c1.502827-1.2342216 2.676268-1.8307621 3.417388-1.8307621.452907 0 .720534.226274.720534.9462366 0 .4114072-.164693 1.0902291-.329387 1.7896213l-.885227 3.6203834c-.205867.8433847-.329387 1.1930809-.329387 1.6661991 0 .5348294.391147.8845255 1.029334.8845255zm-124.9405589 36.58719c1.5028276 0 2.8409618-1.15194 3.7056024-2.550724l-.4734937-.370267c-.5558403.699392-1.4822409 1.501636-2.7792017 1.501636-1.2557875 0-2.0380813-.699392-2.120428-2.4478724 4.6937629-1.3576437 5.9907238-3.2089761 5.9907238-4.5254792 0-1.2136512-.7205338-1.8924731-2.058668-1.8924731-2.8821352 0-5.3731234 3.1472651-5.3731234 6.4590927 0 2.633006 1.2969608 3.826087 3.1085886 3.826087zm-1.667521-4.6694714c.2058668-2.571295 2.2027747-4.7311828 3.4791488-4.7311828.6793605 0 1.1528541.4525479 1.1528541 1.2136512 0 1.1107995-1.2146141 2.5301543-4.6320029 3.5175316zm9.6345661 4.5460494.5970137-.061711c2.0998413-2.139317 3.9938158-4.6283309 4.9613898-6.459093.9494092-1.7589674 1.0246483-2.321651 1.0290894-2.7462016l.0002446-.0513673c0-.3291258-.0205867-.452548-.1029334-.5759701-.1235201-.1439925-.3911469-.2674147-.7822939-.2674147-.6793604 0-1.1116807.4319776-1.1116807 1.4604956 0 .2057036.0411734.5348293.0823468.802244l.1441067.802244c-.0205867.0411408-.0411733.0822815-.06176.1234222-1.0087473 1.8924731-2.0380813 3.4763909-3.4997356 5.1837309-.0205866-2.3861619-.12352-4.8957459-.4117336-6.7470783-.1852801-1.1313698-.5352536-1.6250584-1.3793075-1.6250584-.9675739 0-1.8733879.8433848-2.5939216 2.4478728l.4734936.3291258c.7205338-1.0696587 1.029334-1.3576438 1.3998942-1.3576438.2882135 0 .4940803.1439926.576427.966807.3088002 2.1804581.452907 4.4431979.5352537 7.6727439zm10.2521665.123422c1.5028276 0 2.8409618-1.15194 3.7056023-2.550724l-.4734936-.370267c-.5558404.699392-1.482241 1.501636-2.7792018 1.501636-1.2557875 0-2.0380813-.699392-2.120428-2.4478724 4.693763-1.3576437 5.9907238-3.2089761 5.9907238-4.5254792 0-1.2136512-.7205338-1.8924731-2.058668-1.8924731-2.8821351 0-5.3731234 3.1472651-5.3731234 6.4590927 0 2.633006 1.2969608 3.826087 3.1085887 3.826087zm-1.6675211-4.6694714c.2058668-2.571295 2.2027747-4.7311828 3.4791489-4.7311828.6793604 0 1.152854.4525479 1.152854 1.2136512 0 1.1107995-1.2146141 2.5301543-4.6320029 3.5175316zm7.5964848 4.5666194 1.3793075-.164562c.2676269-1.460496.514667-2.879851.8234672-4.319776l.2470402-1.0696587c.7411205-1.4399252 1.544001-2.571295 2.5321616-3.3941094.4117336.3085554.8646405.5348294 1.2146141.5348294.6793604 0 1.0705073-.4731183 1.091094-1.1519402-.2882135-.4525479-.8028805-.6171108-1.3793075-.6171108-1.091094 0-2.2233614 1.4193548-3.1085887 2.9621318l.452907-2.7564282-.2676268-.2057036-3.3968022 1.0490884-.0823467.5965404 2.0380813.1234222-1.7498678 8.2487147zm6.2377639 4.772324c1.1940275 0 2.3880549-.884525 3.7467758-2.345021.8440538-.925666 1.3998942-1.789621 1.9351478-2.591865 1.1322674-1.70734 1.996908-3.291258 2.7586151-4.6489017.7822938-1.3987845 1.2146141-2.2421693 1.6469344-3.1266948.4117336-.8228144.514667-1.1313698.514667-1.6661991 0-.4114072-.2882135-.6993923-.7617072-.6993923-.576427 0-.8852272.4319776-1.5645876 2.797569-.6793604 2.345021-1.3793076 3.8466569-2.8203751 6.4590929-.0823468-1.913043-.2264535-4.0112201-.4734937-6.3973818-.2470401-2.3038803-.6793604-2.7358579-1.4616542-2.7358579-.8646406 0-1.7910412.6993922-2.6145083 2.4478728l.4734936.3291258c.7411205-1.1107994 1.029334-1.3576438 1.3793075-1.3576438.3705603 0 .4940803.2879851.8028805 2.9004208.3499736 2.7358581.5970137 4.1346421.7617072 6.5413741-.3499736.431978-.6999471.843385-1.091094 1.234222-.5764271.59654-1.1940275 1.090229-1.8528012 1.501636l-.0617601-.04114c-.5970137-.431978-1.0705073-.719963-1.667521-.719963-.576427 0-1.0087473.329126-1.1116807.925666.06176.699392.5558403 1.193081 1.4616542 1.193081z" fill="#00305e" fill-rule="nonzero"/><rect fill="#dae1e8" height="35.333333" rx="2" width="72" x="73.702667" y="80.515493"/><rect fill="#dae1e8" height="35.333333" rx="2" width="51.333333" x="47.036" y="5.18216"/><g fill="#00305e"><path d="m87.9014755 104.135783c1.3696927 0 2.3714083-.588406 3.0255898-1.42029l.1226591.973913c.0204432.182609.122659.304348.3066476.304348h1.7785562c.1839886 0 .3066476-.121739.3066476-.304348v-14.2028985c0-.1826087-.122659-.3043478-.3066476-.3043478h-2.0852038c-.1839886 0-.3066476.1217391-.3066476.3043478v5.6405797c-.6746248-.7710145-1.6150108-1.2782609-2.8416013-1.2782609-2.8211581 0-4.8654755 2.2927537-4.8654755 5.1942029 0 2.8405798 2.0443174 5.0927538 4.8654755 5.0927538zm.3066476-2.434783c-1.4923517 0-2.5758399-1.136232-2.5758399-2.6782606 0-1.6028986 1.0834882-2.7391304 2.5758399-2.7391304 1.512795 0 2.5553969 1.2376811 2.5553969 2.7391304 0 1.5217396-1.0426019 2.6782606-2.5553969 2.6782606zm12.2454619 2.434783c1.369692 0 2.371408-.588406 3.025589-1.42029l.12266.973913c.020443.182609.122659.304348.306647.304348h1.778556c.183989 0 .306648-.121739.306648-.304348v-9.3333333c0-.1826087-.122659-.3043478-.306648-.3043478h-1.778556c-.183988 0-.286204.1217391-.306647.3043478l-.102216 1.0144928c-.695068-.9130435-1.696784-1.5217392-3.046033-1.5217392-2.8211584 0-4.8654759 2.2927537-4.8654759 5.1942029 0 2.8405798 2.0443175 5.0927538 4.8654759 5.0927538zm.306647-2.434783c-1.4923515 0-2.5758397-1.136232-2.5758397-2.6782606 0-1.6028986 1.0834882-2.7391304 2.5758397-2.7391304 1.512795 0 2.555397 1.2376811 2.555397 2.7391304 0 1.5217396-1.042602 2.6782606-2.555397 2.6782606zm11.918371 6.147826c.163545 0 .306648-.081159.367977-.243478l5.294782-13.2086956c.081773-.2231884-.020443-.3449275-.245318-.3449275h-2.146533c-.163545 0-.306648.0811594-.367977.2434783l-2.432738 6.5739128-2.453181-6.5739128c-.061329-.1623189-.204432-.2434783-.367977-.2434783h-2.105647c-.224875 0-.327091.1217391-.245318.3449275l3.86376 9.6173916-1.451466 3.489855c-.102215.223188.020444.344927.245319.344927z" fill-rule="nonzero"/><path d="m61.3890881 31.8488263c.1877165 0 .3128608-.1227272.3128608-.3068181v-1.3704546c2.1691676-.3477273 4.0671892-1.8 4.0671892-4.1522727 0-4.9704546-6.8412209-3.9068182-6.8412209-6.4227273 0-.8386363.6882936-1.4522727 1.8563069-1.4522727 1.042869 0 1.7728774.3681818 2.794889 1.1454545.1668591.1227273.3128607.1022728.438005-.0613636l1.147156-1.3704545c.1251443-.1636364.1251443-.2863637-.0208574-.4295455-.9385821-.9204545-2.0857381-1.5954545-3.4414678-1.8204545v-1.4522728c0-.1840909-.1251443-.3068182-.3128608-.3068182h-1.5225888c-.1877164 0-.3128607.1227273-.3128607.3068182v1.4931818c-1.8980216.3886364-3.3997531 1.8-3.3997531 3.8863637 0 4.6840909 6.8203636 3.8863636 6.8203636 6.4227273 0 1.0227272-.9802969 1.6772727-2.2108824 1.6772727-1.2723002 0-2.2525971-.5318182-3.2537514-1.3909091-.1668591-.1431818-.3337181-.1227273-.4588624.0204545l-1.2514428 1.3295455c-.1251443.1431818-.1251443.2863636-.0208574.4295454.7091509.9613637 2.1274528 1.8409091 3.7751859 2.1272728v1.3909091c0 .1840909.1251443.3068181.3128607.3068181zm13.9845579-1.840909c.1877164 0 .3128607-.1227273.3128607-.3068182v-13.7045455c0-.1840909-.1251443-.3068182-.3128607-.3068182h-4.8389124c-.1877164 0-.3128607.1227273-.3128607.3068182v1.5954546c0 .1840909.1251443.3068181.3128607.3068181h2.3985988v11.8022728c0 .1840909.1251443.3068182.3128607.3068182zm8.4680966.265909c3.1077498 0 5.8609241-2.475 5.8609241-7.3636363 0-4.9090909-2.7531743-7.3840909-5.8609241-7.3840909-3.066035 0-5.860924 2.475-5.860924 7.3840909 0 4.8886363 2.794889 7.3636363 5.860924 7.3636363zm0-2.4954545c-2.1483102 0-3.2120366-2.2090909-3.2120366-4.8681818s1.0637264-4.8886364 3.2120366-4.8886364c2.1691677 0 3.2120367 2.2295455 3.2120367 4.8886364s-1.042869 4.8681818-3.2120367 4.8681818z" fill-rule="nonzero"/><path d="m137.51426 96.0365101c-.125602-.1251251-.270529-.1876838-.434782-.1876838s-.309176.0625587-.434782.1876838l-3.275363 3.5503418-3.275362-3.5503418c-.125604-.1251251-.270531-.1876838-.434783-.1876838s-.309178.0625587-.434782.1876838c-.125605.1355509-.188406.2919495-.188406.4692075s.062801.3336605.188406.4692075l3.710145 4.0039109c.067633.072988.142513.125122.224639.156403.082123.031281.152171.046921.210143.046921s.12802-.01564.210146-.046921c.082127-.031281.157003-.083415.224636-.156403l3.710145-4.0039109c.125606-.135547.188407-.2919495.188407-.4692075s-.062801-.3336566-.188407-.4692075z"/></g></g><path d="m171.98802 58 2.678647-2.6666667-2.678647-2.6666666-.796953.7634854 1.416805 1.3167359h-172.607872v1.1618257h172.596803l-1.405736 1.3167358z" fill="#00305e" fill-rule="nonzero"/><g transform="translate(17.833906 261.930667)"><path d="m25.6744422 15.042286.1610823-.8050661-1.7517697-.2616464 2.0336637-3.8240638h4.3894919l.5235173 3.8844437-1.7517697.2012665-.1610822.8050661h5.3358502l.1610823-.8050661-1.771905-.2213931-1.771905-12.45839733h-1.1678465l-6.9064023 12.43827063-1.6712286.2415198-.1610823.8050661zm4.7116565-5.81660229h-3.7854334l3.0202926-5.69584239zm13.2691521 6.07824879c1.4497404 0 2.5169105-1.2478524 3.4431335-2.4554515l-.4832468-.3824064c-.8456819.9660793-1.4497404 1.4491189-1.9933931 1.4491189-.2416234 0-.4631115-.1610132-.4631115-.4427863 0-.2213932.0805411-.6440529.1812175-1.1472192l1.4296052-6.88331478-.2617587-.20126652-1.3087935.40253303c-.2013528 1.2881057-.4631115 2.5762114-.7248702 3.8643171l-.5436526 2.67684467c-1.5302816 1.2075991-2.3558283 1.730892-3.2015102 1.730892-.4832468 0-.7651408-.2817731-.7651408-.865446 0-.4427863.1208117-1.0868392.3020293-1.9120319l1.2685229-5.69584238-.2617587-.20126652-3.5035394 1.00633258-.0805412.60379954 1.9933931.10063326-.926223 4.34735672c-.1610823.7849394-.422841 1.791272-.422841 2.5359581 0 1.1069658.6241938 1.4692456 1.3893346 1.4692456 1.2282523 0 2.4766399-.865446 4.0270568-2.2944383-.140947.6843061-.1610823.9862059-.1610823 1.2478524 0 .7044328.5235174 1.0465859 1.0671701 1.0465859zm6.1412616 0c1.3691993 0 2.5974516-1.2478524 3.4431335-2.4554515l-.5033821-.3824064c-.8054113.9660793-1.4296051 1.4491189-1.9732578 1.4491189-.2416234 0-.4832468-.1610132-.4832468-.462913 0-.2012665.0604058-.6239262.1812175-1.1673458l1.2282524-5.77634895 2.5974516.08050661.1610823-1.08683919h-2.5571811l.5839232-2.71709795h-1.0268994l-.9463584 2.6969713-2.1746107.20126652-.1409469.80506606h2.0537989l-1.349064 6.3197686c-.1610823.8251927-.2013528 1.1673458-.2013528 1.4692455 0 .6843062.5235173 1.0264593 1.1074406 1.0264593zm8.15479 0c2.8189397 0 5.1546327-3.0391244 5.1546327-6.54116178 0-2.27431162-1.3691993-3.52216402-3.261916-3.52216402-2.8592104 0-5.2553091 2.89823782-5.2553091 6.5210351 0 2.2944383 1.490011 3.5422907 3.3625924 3.5422907zm.2214881-.8050661c-1.1275759 0-1.9329873-.865446-1.9329873-2.9787444 0-2.9988711 1.4698758-5.47444924 3.3827277-5.47444924 1.0873054 0 1.8524462.84531937 1.8524462 3.01899773 0 2.69697131-1.3289288 5.43419591-3.3021866 5.43419591zm10.9334592-3.8643171v-1.28810569h-4.6512506v1.28810569zm9.3830423 4.5486233.5839232-.06038c2.0739343-2.1535517 3.7652981-4.4882433 4.7116565-6.31976858.926223-1.73089203 1.0268994-2.27431162 1.0268994-2.6969713 0-.32202643-.0402705-.48303964-.1208117-.60379955-.1208117-.14088656-.3422998-.24151982-.6644643-.26164647-.6241938 0-1.2081171.42265968-1.2081171 1.42899226 0 .18113986.0402706.5836729.1006765.82519271l.1610822.70443281c-.0402705.06037995-.0604058.12075991-.1006764.18113986-1.0067642 1.85165196-1.9329872 3.22026426-3.3021866 4.91090296-.0402705-1.5900055-.2617586-7.40660775-.2818939-7.80914078h-.8255467c-1.2483876 2.93849112-2.6377222 5.45432258-4.1075979 7.60787428-.0201353-2.2340583-.1006764-4.83039637-.3825704-6.50090844-.1610823-.96607928-.5033821-1.34848566-1.349064-1.34848566-.9060878 0-1.771905.82519272-2.4766399 2.39507153l.4631115.32202643c.6443291-.96607927.9866289-1.328359 1.3691993-1.328359.3020293 0 .4832468.10063326.5637879.88557267.281894 2.0327918.4429763 4.32723007.4631116 7.56762097l.140947.1006333.6040585-.06038c1.6108227-1.8315253 3.120969-4.44799 4.1680038-6.40027518.0805411 1.67051208.2818939 5.59520908.3221645 6.36002188zm10.5508888-12.67979051c.6241938 0 1.1879817-.62392619 1.1879817-1.26797904 0-.72455946-.4429762-1.16734579-1.0873053-1.16734579-.6241938 0-1.1879818.58367289-1.1879818 1.24785239 0 .74468611.4429763 1.18747244 1.0873054 1.18747244zm-1.8725814 12.80055041c1.4296051 0 2.4766399-1.2478524 3.3827277-2.4554515l-.5033821-.3824064c-.8054114.9660793-1.4497405 1.4491189-1.9329873 1.4491189-.2214881 0-.4429762-.1610132-.4429762-.4427863 0-.2213932.0805411-.6440529.1812175-1.1472192l1.4296052-6.88331478-.2617587-.20126652-3.4229983 1.02645923-.0805411.58367289 1.9933931.12075991-1.208117 5.83672897c-.1812176.8251927-.2214882 1.1673458-.2214882 1.4692455 0 .6843062.5436527 1.0264593 1.0873054 1.0264593zm6.1613969 0c1.3691993 0 2.5974516-1.2478524 3.4431335-2.4554515l-.5033821-.3824064c-.8054113.9660793-1.4296052 1.4491189-1.9732578 1.4491189-.2416234 0-.4832468-.1610132-.4832468-.462913 0-.2012665.0604058-.6239262.1812175-1.1673458l1.2282523-5.77634895 2.5974517.08050661.1610822-1.08683919h-2.557181l.5839232-2.71709795h-1.0268995l-.9463583 2.6969713-2.1746107.20126652-.140947.80506606h2.053799l-1.349064 6.3197686c-.1610823.8251927-.2013529 1.1673458-.2013529 1.4692455 0 .6843062.5235174 1.0264593 1.1074407 1.0264593zm11.3160297 0c1.369199 0 2.677993-1.2679791 3.463269-2.4554515l-.483247-.3824064c-.72487.9056993-1.490011 1.4491189-1.973258 1.4491189-.241623 0-.402706-.1408865-.402706-.4226597 0-.2012665.120812-.6037995.261759-1.1673458l.906088-3.72343049.075042-.3064711c.13751-.56159496.267258-1.12097296.267258-1.66594075 0-.92582597-.463112-1.38873896-1.308794-1.38873896-1.208117 0-2.85921.98620593-4.147868 2.23405832l1.44974-7.16508794-.201353-.16101321-3.4834038 1.00633257-.0805412.5836729 1.912852.12075991c-.201353 1.20759909-.422841 2.39507153-.664464 3.58254397l-1.9531229 9.60041278.2013528.1610132 1.3490641-.1610132c.221488-1.4088656.483247-2.8177312.765141-4.2265968l.523517-2.47557816c1.469876-1.18747244 2.577316-1.75101868 3.302187-1.75101868.442976 0 .704735.22139316.704735.92582597 0 .40253303-.161083 1.06671253-.322165 1.75101868l-.865817 3.54229069c-.201353.8251927-.322165 1.1673458-.322165 1.6302588 0 .5232929.382571.865446 1.0269.865446zm10.812647 0c1.349064 0 2.597452-1.2881057 3.382728-2.4554515l-.483247-.3824064c-.684599.865446-1.44974 1.4491189-1.973258 1.4491189-.241623 0-.463111-.1610132-.463111-.4427863 0-.2213932.060406-.6440529.161082-1.1472192l2.436369-12.01561092-.241623-.16101321-3.443133 1.00633257-.080542.5836729 2.033664.14088656-.765141 3.66305058c-.302029-.20126652-.604058-.30189978-.986629-.30189978-2.718263 0-6.100991 4.18634352-6.100991 7.5273677 0 1.8315253.845682 2.5359581 1.812176 2.5359581 1.10744 0 2.51691-.9660793 3.725027-2.3749449-.140947.7044328-.161082 1.0465859-.140947 1.328359 0 .7044328.503383 1.0465859 1.127576 1.0465859zm-3.704892-1.388739c-.72487 0-1.268523-.5836729-1.268523-1.9120319 0-1.6302588.624194-3.18001093 1.530282-4.1863435.684599-.76481276 1.550417-1.2478524 2.416234-1.2478524.402706 0 .825546.14088656 1.228252.48303964l-.966493 4.81026976c-1.349065 1.5296255-2.214882 2.0529184-2.939752 2.0529184zm8.517225 1.2881057 1.349064-.1610132c.261759-1.4289923.503382-2.8177312.805412-4.2265968l.241623-1.0465859c.72487-1.40886561 1.510146-2.51583144 2.47664-3.32089751.402706.30189978.845682.52329294 1.187982.52329294.664464 0 1.047034-.46291298 1.06717-1.12709248-.281894-.44278634-.785276-.60379955-1.349064-.60379955-1.06717 0-2.174611 1.38873896-3.040428 2.89823782l.442976-2.6969713-.261759-.20126652-3.322322 1.02645923-.080541.58367289 1.993393.12075991-1.711499 8.07078727zm13.631587.1006333c1.349064 0 2.617587-1.2881057 3.402863-2.4554515l-.483246-.3824064c-.704735.865446-1.469876 1.4491189-1.973258 1.4491189-.261759 0-.483247-.1610132-.483247-.4427863 0-.2213932.060406-.6440529.181217-1.1472192l1.610823-7.10470795-.362435-.18113986-.926223.7446861c-.322165-.34215307-.6846-.54341959-1.147711-.54341959-2.597452 0-6.221803 4.18634352-6.221803 7.6883809 0 1.6705121.946358 2.3749449 1.912852 2.3749449 1.087305 0 2.355828-.9056994 3.523675-2.2340584-.060406.3622798-.080541.6843062-.080541 1.0667126 0 .805066.503382 1.1673458 1.047034 1.1673458zm-3.624351-1.388739c-.72487 0-1.208117-.5836729-1.208117-1.8113986 0-1.7711454.765141-3.36115083 1.731635-4.36748341.72487-.7446861 1.570552-1.16734579 2.214881-1.16734579.422841 0 .845682.16101322 1.228252.38240638l-1.087305 5.03166292c-1.328929 1.4491189-2.174611 1.9321585-2.879346 1.9321585zm15.725657 1.2679791.583923-.06038c2.073935-2.1535517 3.765298-4.4882433 4.711657-6.31976858.926223-1.73089203 1.026899-2.27431162 1.026899-2.6969713 0-.32202643-.04027-.48303964-.120812-.60379955-.120811-.14088656-.342299-.24151982-.664464-.26164647-.624194 0-1.208117.42265968-1.208117 1.42899226 0 .18113986.040271.5836729.100677.82519271l.161082.70443281c-.040271.06037995-.060406.12075991-.100677.18113986-1.006764 1.85165196-1.932987 3.22026426-3.302186 4.91090296-.040271-1.5900055-.261759-7.40660775-.281894-7.80914078h-.825547c-1.248387 2.93849112-2.637722 5.45432258-4.107598 7.60787428-.020135-2.2340583-.100676-4.83039637-.38257-6.50090844-.161082-.96607928-.503382-1.34848566-1.349064-1.34848566-.906088 0-1.771905.82519272-2.47664 2.39507153l.463111.32202643c.64433-.96607927.986629-1.328359 1.3692-1.328359.302029 0 .483247.10063326.563788.88557267.281894 2.0327918.442976 4.32723007.463111 7.56762097l.140947.1006333.604059-.06038c1.610822-1.8315253 3.120969-4.44799 4.168004-6.40027518.080541 1.67051208.281893 5.59520908.322164 6.36002188zm-142.79943366 35.9398566c1.46987573 0 2.77866919-1.1270924 3.62435111-2.4957047l-.46311153-.3622798c-.54365267.6843062-1.44974044 1.4692456-2.71826333 1.4692456-1.22825232 0-1.99339311-.6843062-2.07393425-2.3950715 4.59084474-1.328359 5.85936763-3.1397577 5.85936763-4.4278634 0-1.1874724-.70473494-1.8516519-2.01352839-1.8516519-2.81893976 0-5.25530911 3.0793777-5.25530911 6.3197686 0 2.5762114 1.26852289 3.7435571 3.04042787 3.7435571zm-1.630958-4.5687499c.20135284-2.5158314 2.15447538-4.6291298 3.40286299-4.6291298.66446437 0 1.1275759.4427863 1.1275759 1.1874724 0 1.0868392-1.18798175 2.4755782-4.53043889 3.4416574zm9.42331286 4.44799.5839233-.0603799c2.0537989-2.0931718 3.906245-4.5284966 4.8526034-6.3197686.9285919-1.721026 1.0021813-2.2715724 1.006525-2.6869653l.0002392-.0502593c0-.3220264-.0201353-.4427863-.1006764-.5635463-.1208117-.1408865-.3825704-.2616464-.7651408-.2616464-.6644644 0-1.0873054.4226597-1.0873054 1.4289922 0 .2012666.0402706.523293.0805412.7849394l.140947.7849395c-.0201353.0402533-.0402706.0805066-.0604059.1207599-.9866289 1.8516519-1.9933931 3.4014041-3.4229983 5.0719162-.0201352-2.3346916-.1208117-4.7901431-.4027056-6.6015417-.1812176-1.1069659-.5235174-1.5900055-1.3490641-1.5900055-.9463583 0-1.83231079.8251927-2.53704573 2.3950715l.46311153.3220264c.70473494-1.0465858 1.0067642-1.328359 1.36919931-1.328359.28189399 0 .48324679.1408866.56378799.9459527.3020292 2.133425.4429762 4.3473567.5235173 7.507241zm10.0273714.1207599c1.4698758 0 2.7786692-1.1270924 3.6243511-2.4957047l-.4631115-.3622798c-.5436527.6843062-1.4497404 1.4692456-2.7182633 1.4692456-1.2282523 0-1.9933931-.6843062-2.0739343-2.3950715 4.5908448-1.328359 5.8593677-3.1397577 5.8593677-4.4278634 0-1.1874724-.704735-1.8516519-2.0135284-1.8516519-2.8189398 0-5.2553091 3.0793777-5.2553091 6.3197686 0 2.5762114 1.2685228 3.7435571 3.0404278 3.7435571zm-1.630958-4.5687499c.2013529-2.5158314 2.1544754-4.6291298 3.402863-4.6291298.6644644 0 1.1275759.4427863 1.1275759 1.1874724 0 1.0868392-1.1879817 2.4755782-4.5304389 3.4416574zm7.4299198 4.4681167 1.349064-.1610132c.2617587-1.4289923.5033821-2.8177312.8054114-4.2265968l.2416234-1.0465859c.7248702-1.4088656 1.5101463-2.5158315 2.4766399-3.3208975.4027057.3018997.8456819.5232929 1.1879818.5232929.6644643 0 1.0470347-.462913 1.06717-1.1270925-.281894-.4427863-.7852761-.6037995-1.349064-.6037995-1.0671701 0-2.1746107 1.3887389-3.0404279 2.8982378l.4429763-2.6969713-.2617587-.2012665-3.3223219 1.0264592-.0805411.5836729 1.9933931.1207599-1.7114991 8.0707873zm6.100991 4.6693831c1.1678465 0 2.335693-.865446 3.6646217-2.2944382.8255467-.9056994 1.3691993-1.7510187 1.8927167-2.5359581 1.1074406-1.6705121 1.9531225-3.2202643 2.6981281-4.5486233.7651407-1.3686123 1.1879817-2.193805 1.6108227-3.059251.4027056-.8050661.5033821-1.1069658.5033821-1.6302588 0-.402533-.281894-.6843061-.7450055-.6843061-.563788 0-.8658173.4226597-1.5302816 2.7372246-.6644644 2.2944383-1.349064 3.7636838-2.7585339 6.3197686-.0805412-1.8717786-.2214881-3.9246971-.4631116-6.2593887-.2416234-2.2541849-.6644643-2.6768446-1.4296051-2.6768446-.8456819 0-1.7517697.6843061-2.5571811 2.3950715l.4631116.3220264c.7248702-1.0868391 1.0067642-1.328359 1.349064-1.328359.3624351 0 .4832468.2817732.7852761 2.8378579.3422998 2.6768447.5839232 4.045457.7450055 6.4002752-.3422999.4226597-.6845997.8251927-1.0671701 1.2075991-.5637879.5836729-1.1678465 1.0667125-1.8121755 1.4692455l-.0604059-.0402533c-.5839232-.4226596-1.0470348-.7044328-1.630958-.7044328-.5637879 0-.9866289.3220265-1.0873053.9056994.0604058.6843061.5436526 1.1673457 1.4296051 1.1673457zm33.0621363-4.6492565c3.0806984 0 5.8392323-3.9649503 5.8392323-8.9362332 0-2.9988711-1.2282523-4.44799-3.3424571-4.44799-3.2417807 0-5.8392324 3.924697-5.8392324 8.9362333 0 2.8177312 1.2282524 4.4479899 3.3424572 4.4479899zm.1812175-.8453193c-1.1879817 0-1.9329872-.925826-1.9329872-3.7234306 0-4.4479899 2.1544753-7.9500273 4.047192-7.9500273 1.0671701 0 1.9329873.865446 1.9329873 3.5624173 0 4.6291299-2.0940695 8.1110406-4.0471921 8.1110406zm8.15479.865446c.7852761 0 1.4094699-.5836729 1.4094699-1.388739 0-.6239262-.4631115-1.1472191-1.1678465-1.1472191-.7651408 0-1.4296051.5836729-1.4296051 1.388739 0 .6641795.5033821 1.1472191 1.1879817 1.1472191zm7.9937077-.0201267c3.0806985 0 5.8392324-3.9649503 5.8392324-8.9362332 0-2.9988711-1.2282523-4.44799-3.3424572-4.44799-3.2417807 0-5.8392323 3.924697-5.8392323 8.9362333 0 2.8177312 1.2282523 4.4479899 3.3424571 4.4479899zm.1812176-.8453193c-1.1879818 0-1.9329873-.925826-1.9329873-3.7234306 0-4.4479899 2.1544754-7.9500273 4.0471921-7.9500273 1.0671701 0 1.9329873.865446 1.9329873 3.5624173 0 4.6291299-2.0940696 8.1110406-4.0471921 8.1110406zm10.0475067.9258259c2.698128 0 4.9734151-1.5296255 4.9734151-4.5687499 0-2.1132984-1.2685229-3.522164-3.7652981-3.522164-.6040585 0-1.2282523.1006333-1.771905.2616465l.8859525-3.8240638h5.4767973l.3624351-1.6302588h-6.3023439l-1.490011 6.2593887.5436526.1207599c.4429763-.2415198 1.0671701-.3824064 1.8927167-.3824064 1.6510933 0 2.5370458 1.0667125 2.5370458 2.8781112 0 2.3548182-1.4698757 3.6227972-3.3827277 3.6227972-.5637879 0-.9664936-.0603799-1.3691993-.2817731l-.0604058-1.1673458c-.0805412-1.1069658-.2617587-1.5296255-.9060878-1.5296255-.3422999 0-.704735.1610132-.8859525.5836729.0805411 2.0730451 1.1275759 3.1800109 3.261916 3.1800109zm16.5512038-.2616464c3.282051 0 5.577473-1.4491189 5.577473-3.7435572 0-1.5497522-1.06717-2.9183645-3.020292-3.3611508 1.852446-.4830397 3.20151-1.7510187 3.20151-3.4416574 0-1.6302588-1.228253-2.9384912-3.906245-2.9384912h-5.134498l-.161082.8251928 1.832311.2213931c-.281894 1.7308921-.583923 3.4617841-.906088 5.1926761l-1.167846 6.2191353-1.731635.2213932-.161082.8050661zm.342299-7.507241h-1.10744l.946358-5.0316629h1.40947c1.630958 0 2.416234.9459526 2.416234 2.2743116 0 1.5497522-1.107441 2.7573513-3.664622 2.7573513zm-.543652 6.581415h-1.731635c.281894-1.7711453.604059-3.5422907.926223-5.313436l.060406-.3421531h1.490011c1.832311 0 3.16124.925826 3.16124 2.5762114 0 1.7107654-1.06717 3.0793777-3.906245 3.0793777zm14.920245.925826.161082-.8050661-2.033663-.2415198c.281894-1.730892.583923-3.4617841.906088-5.1926761l1.167846-6.2191353h2.899481v2.5762114h1.026899l.583924-3.6026707h-10.510619l-.72487 3.6026707h1.0269l.926223-2.5762114h3.020292c-.281894 1.730892-.583923 3.4819107-.906088 5.2128027l-1.167846 6.2191353-1.953123.2213932-.161082.8050661zm10.047507.3018997c1.711499 0 2.85921-.4427863 3.92638-.9056993l.563788-2.9183644h-1.208117l-.825547 2.5158314c-.583923.1811399-1.167846.3018998-1.79204.3018998-2.315557 0-4.308951-1.6503855-4.308951-5.0316629 0-3.8039372 2.43637-7.044328 5.678151-7.044328.664464 0 1.369199.1408865 1.973257.402533v2.4755781h1.147712l.463111-2.8177312c-1.248388-.8050661-2.335693-1.0667125-3.402863-1.0667125-4.208274 0-7.691678 3.6831772-7.691678 8.1311672 0 3.582544 2.114204 5.9574888 5.476797 5.9574888zm27.061821-.0402533c1.3692 0 2.597452-1.2478524 3.443134-2.4554514l-.503382-.3824064c-.805411.9660793-1.429605 1.4491189-1.973258 1.4491189-.241623 0-.483247-.1610132-.483247-.462913 0-.2012665.060406-.6239262.181218-1.1673458l1.228252-5.776349 2.597452.0805066.161082-1.0868392h-2.557181l.583923-2.7170979h-1.026899l-.946359 2.6969713-2.17461.2012665-.140947.8050661h2.053799l-1.349064 6.3197686c-.161083.8251927-.201353 1.1673457-.201353 1.4692455 0 .6843062.523517 1.0264592 1.10744 1.0264592zm8.15479 0c2.81894 0 5.154633-3.0391243 5.154633-6.5411617 0-2.2743116-1.369199-3.522164-3.261916-3.522164-2.85921 0-5.255309 2.8982378-5.255309 6.5210351 0 2.2944382 1.490011 3.5422906 3.362592 3.5422906zm.221489-.805066c-1.127576 0-1.932988-.865446-1.932988-2.9787444 0-2.9988711 1.469876-5.4744493 3.382728-5.4744493 1.087305 0 1.852446.8453194 1.852446 3.0189978 0 2.6969713-1.328929 5.4341959-3.302186 5.4341959z" fill="#00305e" fill-rule="nonzero"/><rect fill="#dae1e8" height="34.666667" rx="2" width="102" x="50.166094" y="26.736"/><g transform="translate(22.400256 64.742904)"><rect fill="#dae1e8" height="34.666667" rx="2" width="127.333333" x=".432505" y=".659763"/><g fill="#00305e"><path d="m13.3586912 25.0618216c.1822086 0 .303681-.1209879.303681-.3024697v-5.4041256c0-.4637869.6883435-1.9358062 2.1865031-1.9358062.9717791 0 1.8625766.5646101 1.8625766 2.1979466v5.1419852c0 .1814818.1214724.3024697.303681.3024697h2.0650307c.1822086 0 .303681-.1209879.303681-.3024697v-5.4444549c0-.7057627.6883435-1.8954769 2.186503-1.8954769.9515338 0 1.8423313.5646101 1.8423313 2.1979466v5.1419852c0 .1814818.1214724.3024697.303681.3024697h2.0650307c.1822086 0 .303681-.1209879.303681-.3024697v-5.6259368c0-2.6415688-1.5588957-4.1740821-3.7251534-4.1740821-1.6196319 0-2.793865.7662566-3.502454 1.834983-.6276073-1.1897142-1.7411043-1.834983-3.0570552-1.834983-1.4374233 0-2.4901841.7864213-3.1380368 1.834983v-.0201647l-.0809816-1.2905374c-.0202454-.1814819-.1214724-.3024698-.303681-.3024698h-1.9840491c-.1822086 0-.3036809.1209879-.3036809.3024698v9.275738c0 .1814818.1214723.3024697.3036809.3024697zm20.3466258 3.8312831c.1619632 0 .303681-.0806586.3644172-.2419758l5.2435582-13.1271857c.0809816-.2218112-.0202454-.3427991-.2429448-.3427991h-2.1257668c-.1619632 0-.303681.0806586-.3644172.2419758l-2.4092025 6.5333459-2.4294478-6.5333459c-.0607362-.1613172-.202454-.2419758-.3644172-.2419758h-2.0852761c-.2226993 0-.3239263.1209879-.2429447.3427991l3.8263803 9.5580431-1.4374233 3.4683194c-.101227.2218111.0202454.342799.2429448.342799zm18.6460122-3.8312831c.1619632 0 .303681-.0806586.3644172-.2419758l2.3687117-6.1703822 2.3687116 6.1703822c.0607362.1613172.202454.2419758.3644172.2419758h2.0042945c.1619632 0 .303681-.0806586.3644172-.2419758l3.4619632-9.2959026c.0809816-.2218112-.0202454-.3427991-.2429448-.3427991h-2.0245399c-.1619632 0-.303681.0806586-.3644172.2419758l-2.2472392 6.5535106-2.3687117-6.5535106c-.0404908-.1008232-.101227-.1814818-.202454-.2016465-.0404908-.0201646-.101227-.0403293-.1619632-.0403293h-1.9030675c-.0607362 0-.1214724.0201647-.1619632.0403293-.1012269.0201647-.1619631.1008233-.2024539.2016465l-2.3484663 6.5535106-2.2877301-6.5535106c-.0607362-.1613172-.2024539-.2419758-.3644171-.2419758h-2.0245399c-.2226994 0-.3239264.1209879-.2429448.3427991l3.4619632 9.2959026c.0607362.1613172.202454.2419758.3644172.2419758zm17.7957056.1411525c1.3564417 0 2.3484662-.5847747 2.996319-1.4115253l.1214724.9679031c.0202454.1814818.1214724.3024697.303681.3024697h1.7613497c.1822085 0 .3036809-.1209879.3036809-.3024697v-9.275738c0-.1814819-.1214724-.3024698-.3036809-.3024698h-1.7613497c-.1822086 0-.2834356.1209879-.303681.3024698l-.101227 1.0082324c-.6883436-.9074092-1.6803681-1.5123486-3.0165644-1.5123486-2.7938651 0-4.8184049 2.2786052-4.8184049 5.1621498 0 2.8230507 2.0245398 5.0613266 4.8184049 5.0613266zm.3036809-2.4197577c-1.4779141 0-2.5509202-1.1292203-2.5509202-2.6617335 0-1.5930072 1.0730061-2.7222275 2.5509202-2.7222275 1.4981596 0 2.5306749 1.2300435 2.5306749 2.7222275 0 1.5123486-1.0325153 2.6617335-2.5306749 2.6617335zm9.9809816 2.2786052c.1822086 0 .303681-.1209879.303681-.3024697v-14.1152535c0-.1814819-.1214724-.3024697-.303681-.3024697h-2.0650306c-.1822086 0-.303681.1209878-.303681.3024697v14.1152535c0 .1814818.1214724.3024697.303681.3024697zm5.1220859 0c.1822086 0 .303681-.1209879.303681-.3024697v-14.1152535c0-.1814819-.1214724-.3024697-.303681-.3024697h-2.0650306c-.1822086 0-.303681.1209878-.303681.3024697v14.1152535c0 .1814818.1214724.3024697.303681.3024697zm7.6730062.1411525c1.4374233 0 2.7331288-.5646101 3.6846625-1.5123485.1619632-.1613172.1619632-.3024698.0202454-.4436223l-.8907975-.8670799c-.1417178-.1411525-.2631902-.1411525-.4453988-.0201646-.6883435.4839515-1.3159509.685598-2.1055214.685598-1.5386504 0-2.5509203-.7259273-2.8343559-1.9963001h6.3570552c.607362 0 .708589-.403293.708589-1.1897142 0-2.6214043-1.8423313-4.8798448-4.7171779-4.8798448s-5.0006135 2.2584405-5.0006135 5.1016559c0 2.8432153 2.1257669 5.1218205 5.2233129 5.1218205zm2.1257668-5.8880771h-4.7374233c.2429448-1.3308668 1.1944786-2.0567941 2.4092025-2.0567941 1.1742331 0 2.1257668.7259273 2.3282208 2.0567941zm8.2803678 5.7469246c.182209 0 .303681-.1209879.303681-.3024697v-7.4004258h1.619632c.182209 0 .303681-.1209879.303681-.3024697v-1.5728425c0-.1814819-.121472-.3024698-.303681-.3024698h-1.619632v-2.7222274c0-.1814819-.121472-.3024697-.303681-.3024697h-2.06503c-.182209 0-.303681.1209878-.303681.3024697v2.7222274h-1.6196322c-.1822086 0-.303681.1209879-.303681.3024698v1.5728425c0 .1814818.1214724.3024697.303681.3024697h1.6196322v7.4004258c0 .1814818.121472.3024697.303681.3024697z" fill-rule="nonzero"/><path d="m122.549455 16.6700497c-.12398-.1151459-.267034-.1727152-.429165-.1727152s-.305182.0575693-.429165.1727152l-3.233048 3.2671856-3.233046-3.2671856c-.123982-.1151459-.267036-.1727152-.429166-.1727152s-.305183.0575693-.429165.1727152c-.123982.1247401-.185972.2686651-.185972.431786 0 .1631208.06199.3070495.185972.431786l3.662212 3.6845807c.06676.0671672.140672.115143.221738.1439289.081061.0287859.150204.0431787.207427.0431787.057224 0 .126366-.0143928.207432-.0431787.081065-.0287859.154974-.0767617.221733-.1439289l3.662213-3.6845807c.123983-.1247365.185972-.2686652.185972-.431786 0-.1631209-.061989-.3070459-.185972-.431786z" transform="matrix(0 -1 1 0 99.506756 137.4094)"/></g></g><path d="m65.3518392 53.0741922c2.9899155 0 5.6386996-2.5259169 5.6386996-7.5151247 0-5.0100831-2.6487841-7.536-5.6386996-7.536-2.9497823 0-5.6386995 2.5259169-5.6386995 7.536 0 4.9892078 2.6889172 7.5151247 5.6386995 7.5151247zm0-2.5467922c-2.0668542 0-3.0902481-2.2545374-3.0902481-4.9683325 0-2.713795 1.0233939-4.9892078 3.0902481-4.9892078 2.0869209 0 3.0902482 2.2754128 3.0902482 4.9892078 0 2.7137951-1.0033273 4.9683325-3.0902482 4.9683325zm8.9296132 2.5467922c.8026618 0 1.4447913-.6680111 1.4447913-1.5239003 0-.8350138-.6421295-1.5030249-1.4447913-1.5030249-.8227284 0-1.4648579.6680111-1.4648579 1.5030249 0 .8558892.6421295 1.5239003 1.4648579 1.5239003zm8.88948 0c2.9899154 0 5.6386996-2.5259169 5.6386996-7.5151247 0-5.0100831-2.6487842-7.536-5.6386996-7.536-2.9497823 0-5.6386995 2.5259169-5.6386995 7.536 0 4.9892078 2.6889172 7.5151247 5.6386995 7.5151247zm0-2.5467922c-2.0668543 0-3.0902481-2.2545374-3.0902481-4.9683325 0-2.713795 1.0233938-4.9892078 3.0902481-4.9892078 2.0869208 0 3.0902482 2.2754128 3.0902482 4.9892078 0 2.7137951-1.0033274 4.9683325-3.0902482 4.9683325zm11.6185304 2.5259169c2.8695161 0 5.0166366-1.9831579 5.0166366-5.1770859 0-2.7137951-2.0066547-4.8848311-4.6353722-4.8848311-.7825954 0-1.3845917.2505042-1.5451241.3548809l.7223957-2.9016731h4.3945736c.1805989 0 .3009982-.1252521.3009982-.3131302v-1.628277c0-.1878782-.1203993-.3131302-.3009982-.3131302h-5.9396977c-.1805989 0-.2809317.1043767-.3210648.2713795l-1.7457895 6.930615c-.0401331.1878781.0200666.3131302.2006655.3757562l1.6053237.5218837c.1605324.062626.2809316.0208753.4013309-.1252521.4815971-.542759 1.1036601-.8350139 1.8661888-.8350139 1.3243921 0 2.4280521 1.1898948 2.4280521 2.5467923 0 1.4612742-1.0434604 2.6720443-2.4481186 2.6720443-.9832608 0-1.6454568-.5010083-2.0869208-1.1063933-.1404659-.1670028-.2809317-.1670028-.4414641-.0417507l-1.4648579 1.085518c-.1605323.1043767-.1805989.2296288-.0802661.3966316.6019964 1.0437673 2.0668542 2.171036 4.0735089 2.171036zm18.0197582-.2505042c3.511646 0 5.177169-1.4612742 5.177169-4.2168199 0-1.8996566-1.304325-3.2148034-2.78925-3.611435 1.023394-.4175069 1.785923-1.5656509 1.785923-3.0895512 0-1.9831579-1.384592-3.6949363-4.173842-3.6949363h-4.775838c-.180599 0-.300998.125252-.300998.3131302v13.986482c0 .1878781.120399.3131302.300998.3131302zm-.260865-8.8511468h-2.066854v-3.2356787h2.066854c1.10366 0 1.846123.4175069 1.846123 1.5239003 0 1.1690194-.722396 1.7117784-1.846123 1.7117784zm.341132 6.3252299h-2.407986v-3.9663158h2.407986c1.464857 0 2.347786.6471357 2.347786 1.9622826 0 1.3777728-.882929 2.0040332-2.347786 2.0040332zm12.72219 2.5259169c.180599 0 .300998-.1252521.300998-.3131302v-11.7736953h3.030049c.180599 0 .300998-.1252521.300998-.3131302v-1.8996565c0-.1878782-.120399-.3131302-.300998-.3131302h-8.829281c-.180599 0-.300998.125252-.300998.3131302v1.8996565c0 .1878781.120399.3131302.300998.3131302h3.050115v11.7736953c0 .1878781.1204.3131302.300999.3131302zm12.862656.2713795c1.946455 0 3.652112-.8141385 4.896238-2.10841.140465-.1461274.140465-.2922548 0-.4383822l-1.324393-1.4821496c-.120399-.1461274-.280931-.1461274-.421397-.0208754-.842795.7723878-1.886255 1.2525208-3.170514 1.2525208-2.448119 0-4.374507-2.0249086-4.374507-4.7178283 0-2.713795 1.926388-4.7387036 4.374507-4.7387036 1.284259 0 2.327719.480133 3.170514 1.2525208.140466.1252521.300998.1252521.421397-.0208754l1.324393-1.4821496c.140465-.1461274.140465-.2922548 0-.4383822-1.244126-1.2942715-2.949783-2.10841-4.896238-2.10841-4.013309 0-7.223956 3.3191801-7.223956 7.536 0 4.1959447 3.210647 7.5151247 7.223956 7.5151247z" fill="#00305e" fill-rule="nonzero"/></g></g><path d="m237.810696 450.260946c-.002104 1.021622-.015611 2.041686-.098067 3.062269-.39848 4.91951-2.002953 9.716478-4.651103 13.882886-2.795857 4.397694-6.721417 8.036606-11.312465 10.499607-4.251 2.281217-9.042506 3.523673-13.865662 3.603204-1.627196.02678-3.256828.004869-4.884836.004869h-163.5247254c-2.1904256 0-4.3800396.003246-6.5704652 0-3.8468386-.004869-7.6530987-.672761-11.2426698-2.068596-4.8028673-1.867337-9.0985037-4.962521-12.39022886-8.926857-3.23085747-3.892921-5.46186153-8.583579-6.4414257-13.546911-.42850861-2.172473-.57540265-4.366045-.57540265-6.575036v-290.93314c-.10388088.138772-1.42349259.137149-1.52169248 0-.14689405-.205318 0-1.063919 0-1.305756v-27.163614c0-.48205-.1428362-1.225413 0-1.68961.01704296-.055996-.02678179-.179349.00973883-.217491.15500974-.161495 1.25955559 0 1.51195365 0v-9.669409c-.10388088.138772-1.42349259.137961-1.52169248 0-.14689405-.205317 0-1.063919 0-1.305755v-27.1636142c0-.4820503-.1428362-1.225414 0-1.6896105.01704296-.0559958-.02678179-.1793487.00973883-.2174907.15500974-.161495 1.25955559 0 1.51195365 0v-16.0821383c-.03489748.338409.06167927.2215483-.15825602.3473358-.1533866.0876455-1.27903325.0657342-1.36343646-.0340843-.08521478-.10063 0-.6329953 0-.7604059v-14.5661957c0-.0860225-.06330241-.5169462 0-.5802457.163937-.1655527 1.26523657-.0024346 1.52169248-.0024346v-25.467511c0-1.4331663.00892726-2.8606518.15095189-4.2897605.48775316-4.9089597 2.19204874-9.6767128 4.91729852-13.7879361 2.862405-4.31816409 6.8317905-7.87673383 11.4406927-10.24478549 4.3005059-2.20899129 9.0928227-3.36217889 13.9249064-3.37272881h174.3892041c3.68696 0 7.33334.59404174 10.799553 1.8689592 4.851561 1.78455984 9.216181 4.81238736 12.585006 8.7329006 3.290913 3.8304331 5.598205 8.4732102 6.663795 13.409762.499115 2.313679.685983 4.6573846.685983 7.0197556l.000605 68.574491c.150952-.2101869 1.205992-.0576188 1.521692-.0576188v48.6927574c-.369264 0-1.369117.177726-1.521692-.102253zm-35.628571-440.27558037-10.355625.01190247h-15.06435c-1.037185 0-2.039473.4771811-2.693598 1.2822213-.877036 1.0798791-.858821 2.4616483-.813674 3.8300724l.016497.5119177c.014367.5100609.017259 1.0127038-.037117 1.491305-.155821 1.3714898-.62572 2.7032146-1.366682 3.8685751-1.516823 2.3867169-4.119526 3.9619014-6.936483 4.1996804-2.292684.1931447-4.653539.0324613-6.949468.0324613h-78.7003122c-1.9948374 0-4.1170912.1907101-6.0494377-.4000855-2.7447275-.8399361-4.9789778-2.9807586-5.935818-5.6864078-.4655911-1.3156813-.5174643-2.6319437-.5224054-3.9925438l-.0006305-.9662192c-.0045347-1.018498-.0605366-1.9607413-.7202883-2.8181523-.6541249-.8496745-1.679137-1.3471439-2.7487853-1.3528246h-13.2837667c-5.6939703 0-11.3887523-.00649226-17.0827226 0-3.4564738.0040577-6.8358484.8431822-9.8313508 2.5896-3.2625086 1.902232-5.9163403 4.7774915-7.5557104 8.1794355-1.2563093 2.6074537-1.8731019 5.4583671-1.8839229 8.3474226v421.3991528c0 1.732621.140672 3.448201.5578187 5.135377.9024651 3.647027 2.898114 6.991352 5.6809852 9.516029 2.7187572 2.466247 6.1395219 4.111224 9.763179 4.694715 1.2800477.205724 2.5637474.238439 3.8510993.241938l171.3058496-.000912c1.581748 0 3.18054.055184 4.753361-.128223 3.643947-.42362 7.132072-1.917651 9.953898-4.261356 2.884317-2.395644 5.018745-5.638528 6.084335-9.232805.564041-1.902232.783435-3.853156.783435-5.831672v-421.4640751c-.007574-2.6147575-.49127-5.191373-1.516282-7.6032474-1.481925-3.4879664-4.014022-6.4938825-7.199431-8.5470596-3.077471-1.9825738-6.670289-3.0156546-10.324785-3.0343198-1.725938-.00892685-3.451875-.01190247-5.177812-.01190247zm-61.062476 4.61978367c-1.345582 1.5816767.054375 4.064966 2.104399 3.7322377 1.098053-.1793487 1.907188-1.1475069 1.916927-2.2536256-.017855-2.0685962-2.666817-3.0708388-4.021326-1.4786121zm-9.497348-.0505487-.297702.0042702c-.098435.0017172-.195774.0032673-.291134.0032673h-23.174362c-1.24657.013796-1.975359 1.4899735-1.187326 2.4727393.664676.8285746 2.019996.5705073 2.945997.5705073h17.32944c1.722961 0 3.467835.0795302 5.189986 0 1.077764-.0495035 1.932346-1.0476884 1.465694-2.1254034-.371374-.8582768-1.182684-.9307304-1.980593-.9253807z" fill="#00274f"/><g fill="#fff"><path d="m107.859103 14.5621381c-1.24657.013796-1.975359 1.4899735-1.187326 2.4727393.664676.8285746 2.019996.5705073 2.945997.5705073h17.32944c1.722961 0 3.467835.0795302 5.189986 0 1.077764-.0495035 1.932346-1.0476884 1.465694-2.1254034-.464218-1.0728459-1.615835-.9178432-2.569429-.9178432-2.445258 0-4.889705 0-7.334963 0-5.177001 0-10.354002 0-15.531002 0-.10307 0-.206139 0-.308397 0z"/><path d="m145.140975 16.0837614c-.017855-2.0685962-2.666817-3.0708388-4.021326-1.4786121-1.345582 1.5816767.054375 4.064966 2.104399 3.7322377 1.098053-.1793487 1.907188-1.1475069 1.916927-2.2536256z"/></g></g></svg>